<?xml version="1.0" encoding="UTF-8"?>
<svg version="1.1" xmlns="http://www.w3.org/2000/svg" width="1024" height="1024">
<path d="M0 0 C1.13991394 -0.00979385 2.27982788 -0.01958771 3.45428467 -0.02967834 C38.04674271 -0.26557738 70.2593956 1.6738284 103.93359375 10.23828125 C105.30366577 10.5779895 105.30366577 10.5779895 106.70141602 10.92456055 C113.73073101 12.73928751 120.39772502 15.19987952 127.12109375 17.92578125 C128.21317139 18.36567383 129.30524902 18.80556641 130.43041992 19.25878906 C139.17852728 22.83060469 147.57001244 26.85735771 155.93359375 31.23828125 C158.0780588 32.28276188 160.22380513 33.32461783 162.37109375 34.36328125 C167.53239883 36.95432568 172.23127557 39.89540103 176.93359375 43.23828125 C178.03892696 44.01191244 179.14440696 44.78533393 180.25 45.55859375 C187.34523256 50.54751989 194.26407364 55.68700403 200.93359375 61.23828125 C201.44857422 61.66302734 201.96355469 62.08777344 202.49414062 62.52539062 C215.16029272 73.00415589 226.95565847 84.13234245 236.93359375 97.23828125 C238.155625 98.73488281 238.155625 98.73488281 239.40234375 100.26171875 C264.09228264 130.52447803 288.23266165 171.95412735 296.08203125 210.45703125 C296.50355469 212.32875 296.50355469 212.32875 296.93359375 214.23828125 C297.59359375 214.56828125 298.25359375 214.89828125 298.93359375 215.23828125 C299.62219315 217.53569926 300.1785853 219.77330085 300.68359375 222.11328125 C300.84988281 222.85723145 301.01617188 223.60118164 301.1875 224.36767578 C301.56360199 226.05303207 301.93642881 227.73912132 302.30664062 229.42578125 C302.97668162 232.43157263 303.67983563 235.42844916 304.38671875 238.42578125 C311.96899868 270.96157594 316.16982021 304.07140098 316.12109375 337.48828125 C316.12018738 338.65464615 316.12018738 338.65464615 316.1192627 339.84457397 C316.01222805 391.13570847 308.56737298 444.53673415 288.93359375 492.23828125 C288.61310059 493.02831543 288.29260742 493.81834961 287.96240234 494.63232422 C282.68304379 507.57867856 276.76844324 520.04158862 269.93359375 532.23828125 C269.48677246 533.04088379 269.03995117 533.84348633 268.57958984 534.67041016 C258.73881114 552.17554137 246.98189012 568.45284506 233.0703125 582.9609375 C230.91360525 585.16257721 230.91360525 585.16257721 229.265625 587.546875 C228.82605469 588.10503906 228.38648438 588.66320312 227.93359375 589.23828125 C227.27359375 589.23828125 226.61359375 589.23828125 225.93359375 589.23828125 C225.66417969 589.83253906 225.39476562 590.42679688 225.1171875 591.0390625 C221.48853993 597.78140106 214.24160224 602.54529122 208.38671875 607.22265625 C205.98506495 609.11698893 205.98506495 609.11698893 204.23046875 611.00390625 C202.93359375 612.23828125 202.93359375 612.23828125 200.93359375 612.23828125 C200.93359375 612.89828125 200.93359375 613.55828125 200.93359375 614.23828125 C199.94359375 614.89828125 198.95359375 615.55828125 197.93359375 616.23828125 C204.53142773 624.4386899 211.37315561 632.40033967 218.28271484 640.33740234 C222.36959578 645.043178 226.41961484 649.78066083 230.46630859 654.52099609 C231.45761691 655.68120619 232.45016243 656.84036016 233.44384766 657.99853516 C236.63717175 661.72080844 239.79544309 665.46937274 242.93359375 669.23828125 C243.50335937 669.89183594 244.073125 670.54539062 244.66015625 671.21875 C248.54344357 675.99905398 249.71656706 681.20326991 249.93359375 687.23828125 C248.67569237 698.93676408 239.48058987 708.81269952 230.93359375 716.23828125 C221.57045617 723.73420353 213.01575724 729.30658996 200.57421875 727.98828125 C181.98407239 724.39845988 169.42289766 706.79289409 157.66796875 693.21875 C155.66094837 690.9269497 153.60956524 688.67831373 151.55859375 686.42578125 C148.42936548 682.96298043 145.42859026 679.43149122 142.49609375 675.80078125 C138.57046235 670.94539504 134.4390813 666.32471709 130.1953125 661.74609375 C128.00321919 659.31548251 125.95123961 656.81458877 123.93359375 654.23828125 C118.79943966 655.33341733 113.72002727 656.5361119 108.66113281 657.93798828 C37.0151616 677.64769759 -51.18297609 675.89803905 -118.6328125 642.3046875 C-121.08153492 641.03760193 -121.08153492 641.03760193 -124.06640625 641.23828125 C-124.06640625 640.57828125 -124.06640625 639.91828125 -124.06640625 639.23828125 C-124.73027344 638.98949219 -125.39414062 638.74070312 -126.078125 638.484375 C-139.02479854 633.08569675 -150.80775637 625.5269469 -162.06640625 617.23828125 C-162.96504395 616.57723389 -162.96504395 616.57723389 -163.88183594 615.90283203 C-173.5763597 608.69209552 -182.38838489 600.62989926 -191.06640625 592.23828125 C-191.62134766 591.70525391 -192.17628906 591.17222656 -192.74804688 590.62304688 C-201.70449661 581.99149859 -209.7105774 572.78688124 -216.875 562.6015625 C-217.26816406 562.15167969 -217.66132813 561.70179688 -218.06640625 561.23828125 C-218.72640625 561.23828125 -219.38640625 561.23828125 -220.06640625 561.23828125 C-220.15277344 560.69042969 -220.23914063 560.14257812 -220.328125 559.578125 C-221.30265316 556.48954105 -222.95583918 554.40991549 -224.87890625 551.80078125 C-234.76619943 537.96586619 -242.91047597 522.64859311 -250.06640625 507.23828125 C-250.42299316 506.4714502 -250.77958008 505.70461914 -251.14697266 504.91455078 C-265.59196439 473.45114226 -273.50608397 439.88245524 -278.60498047 405.77490234 C-278.94093275 403.25596268 -278.94093275 403.25596268 -280.06640625 401.23828125 C-280.27908086 398.65074018 -280.44297645 396.080307 -280.56640625 393.48828125 C-280.6381783 392.07676425 -280.71114064 390.66530738 -280.78515625 389.25390625 C-280.84265045 388.14520927 -280.84265045 388.14520927 -280.90130615 387.01411438 C-281.08441262 383.93553959 -281.32969929 380.86432301 -281.57128906 377.78979492 C-282.08272295 370.65275132 -282.24300762 363.5519179 -282.26953125 356.3984375 C-282.27654556 355.12535736 -282.28355988 353.85227722 -282.29078674 352.5406189 C-282.31015969 348.46066782 -282.3152198 344.3807737 -282.31640625 340.30078125 C-282.31684811 339.60611378 -282.31728996 338.9114463 -282.31774521 338.1957283 C-282.32457441 317.72772326 -282.12677192 297.5211814 -279.06640625 277.23828125 C-278.90543457 276.09584961 -278.74446289 274.95341797 -278.57861328 273.77636719 C-272.34750273 230.30823576 -259.40950994 188.18576183 -239.06640625 149.23828125 C-238.56625 148.26890625 -238.06609375 147.29953125 -237.55078125 146.30078125 C-234.3510036 140.25284986 -230.75552124 134.51966389 -226.96118164 128.83154297 C-224.77050658 125.79535504 -224.77050658 125.79535504 -224.06640625 122.23828125 C-222.93871643 121.14583174 -221.80962082 120.05481543 -220.67578125 118.96875 C-218.67422285 116.81658891 -217.02307909 114.50603657 -215.31640625 112.11328125 C-205.54544317 98.47768352 -194.20563761 86.33883082 -182.44140625 74.42578125 C-181.83723877 73.80856201 -181.23307129 73.19134277 -180.6105957 72.55541992 C-179.13470022 71.07657139 -177.60497316 69.65181311 -176.06640625 68.23828125 C-175.40640625 68.23828125 -174.74640625 68.23828125 -174.06640625 68.23828125 C-174.06640625 67.57828125 -174.06640625 66.91828125 -174.06640625 66.23828125 C-172.12609647 64.52244471 -170.18151704 62.93604311 -168.12890625 61.36328125 C-167.5042749 60.88004395 -166.87964355 60.39680664 -166.23608398 59.89892578 C-118.39794187 23.21457145 -60.8608061 0.43160641 0 0 Z M-99.06640625 104.23828125 C-100.13246094 104.94210937 -101.19851563 105.6459375 -102.296875 106.37109375 C-110.14729198 111.66001404 -117.3113807 117.50980436 -124.39892578 123.77783203 C-126.1709759 125.32986773 -127.96932314 126.84795045 -129.76953125 128.3671875 C-132.19269636 130.44068324 -134.39079342 132.53622569 -136.44140625 134.98828125 C-138.28302269 137.16473705 -140.12716646 139.30256719 -142.0859375 141.375 C-153.2411008 153.21354268 -162.10671841 167.10315308 -170.06640625 181.23828125 C-170.46037598 181.93050781 -170.8543457 182.62273437 -171.26025391 183.3359375 C-213.1158022 257.52460654 -219.02243742 356.33510663 -196.37890625 437.61328125 C-186.01504135 473.84725167 -169.08415522 505.35818834 -144.36254883 533.71899414 C-143.18447386 535.09988707 -142.05593271 536.52265604 -140.93359375 537.94921875 C-139.2329843 540.03406632 -137.55754611 541.70036893 -135.50390625 543.42578125 C-132.18019566 546.2518568 -128.99384738 549.18632726 -125.81640625 552.17578125 C-120.39794551 557.10302867 -114.66556268 561.97302257 -108.06640625 565.23828125 C-105.06616321 565.00789609 -104.3526762 564.55522298 -102.31640625 562.30078125 C-100.89363901 560.35516908 -100.89363901 560.35516908 -101.06640625 558.23828125 C-100.47472656 557.97273438 -99.88304687 557.7071875 -99.2734375 557.43359375 C-97.00955205 556.20748942 -95.57746555 554.9158801 -93.75390625 553.11328125 C-87.98648833 547.89514123 -80.96744282 544.69778526 -74.06640625 541.23828125 C-74.06640625 540.57828125 -74.06640625 539.91828125 -74.06640625 539.23828125 C-73.40640625 538.57828125 -72.74640625 537.91828125 -72.06640625 537.23828125 C-72.70964844 537.06288818 -73.35289062 536.88749512 -74.015625 536.70678711 C-106.93407788 527.64658168 -133.99561211 514.42818865 -151.94311523 484.01660156 C-161.75957878 466.66985108 -165.44802335 447.77697186 -168.06640625 428.23828125 C-169.38640625 428.23828125 -170.70640625 428.23828125 -172.06640625 428.23828125 C-172.06640625 427.24828125 -172.06640625 426.25828125 -172.06640625 425.23828125 C-171.40640625 424.90828125 -170.74640625 424.57828125 -170.06640625 424.23828125 C-171.04480469 423.81869141 -171.04480469 423.81869141 -172.04296875 423.390625 C-180.41198906 419.5517381 -184.94349831 415.62981912 -188.31640625 406.98828125 C-195.2007663 386.04954301 -196.9468217 355.0128278 -188.06640625 334.23828125 C-186.84087636 332.12789223 -185.50162798 330.21789743 -184.06640625 328.23828125 C-184.06640625 327.57828125 -184.06640625 326.91828125 -184.06640625 326.23828125 C-180.51220233 324.41665054 -176.87263342 322.87089189 -173.1875 321.3359375 C-171.02989997 320.21938942 -169.67394458 319.04098398 -168.06640625 317.23828125 C-167.73640625 317.89828125 -167.40640625 318.55828125 -167.06640625 319.23828125 C-166.8240625 318.0059375 -166.58171875 316.77359375 -166.33203125 315.50390625 C-163.84693038 303.12474701 -161.07019618 291.44535578 -155.06640625 280.23828125 C-154.79183594 279.63113281 -154.51726562 279.02398437 -154.234375 278.3984375 C-152.00702982 274.27896631 -148.91892453 270.71298092 -146.0625 267.015625 C-143.93907782 264.35108978 -143.93907782 264.35108978 -143.06640625 261.23828125 C-142.40640625 261.23828125 -141.74640625 261.23828125 -141.06640625 261.23828125 C-139.94269626 260.11457126 -138.82176955 258.98800451 -137.7109375 257.8515625 C-116.9765659 237.51119321 -88.63487057 233.01753045 -60.734375 232.82421875 C-59.00416688 232.80546452 -57.2739675 232.78588811 -55.54377747 232.76553345 C-51.03454794 232.71465498 -46.5252889 232.67479514 -42.01593018 232.63739014 C-37.39661629 232.59706952 -32.77742044 232.54610662 -28.15820312 232.49609375 C-19.12768761 232.39986035 -10.09710476 232.31529089 -1.06640625 232.23828125 C-0.84324754 226.93664074 -0.680321 221.63775182 -0.57202148 216.33251953 C-0.52686828 214.52995173 -0.46552567 212.72771169 -0.38745117 210.92626953 C0.51186066 200.77127383 0.51186066 200.77127383 -3.03007507 191.76071167 C-5.3361847 190.2373634 -7.4947505 189.22400458 -10.06640625 188.23828125 C-16.90377977 182.0481634 -21.63219364 174.22472074 -22.3046875 164.953125 C-22.54367092 152.79012693 -20.41244014 143.87911092 -12.328125 134.46484375 C-4.67210434 126.9278286 5.33716444 123.26361662 15.99609375 122.86328125 C26.89012699 123.27632516 37.23389488 127.93577455 44.68359375 135.92578125 C52.23558846 145.41510477 55.29221237 152.98270088 53.93359375 165.23828125 C52.478298 175.7025507 47.07537348 184.30141903 38.74609375 190.80078125 C35.94845164 192.78563471 33.12108376 193.99162867 29.93359375 195.23828125 C29.90415221 199.34243242 29.88664848 203.44655581 29.87109375 207.55078125 C29.86271484 208.69869141 29.85433594 209.84660156 29.84570312 211.02929688 C29.84248047 212.16689453 29.83925781 213.30449219 29.8359375 214.4765625 C29.83070068 215.50821533 29.82546387 216.53986816 29.82006836 217.6027832 C29.97310249 222.5034955 30.44928243 227.36060624 30.93359375 232.23828125 C31.84575653 232.24414749 32.75791931 232.25001373 33.69772339 232.25605774 C42.37480537 232.31442285 51.05164182 232.38674193 59.7284832 232.47399616 C64.18729657 232.51836164 68.64602563 232.55768783 73.10498047 232.5847168 C77.42349024 232.61109289 81.74166934 232.65172457 86.05997086 232.70146751 C87.6917923 232.71790816 89.32367062 232.72956199 90.95556259 232.73589516 C105.64225818 232.79854945 120.43872985 234.06154583 134.37109375 239.05078125 C135.11496338 239.30939941 135.85883301 239.56801758 136.62524414 239.83447266 C148.14414036 243.96920418 159.43120895 250.37199287 167.99609375 259.23828125 C168.63546875 259.89828125 169.27484375 260.55828125 169.93359375 261.23828125 C170.59359375 261.23828125 171.25359375 261.23828125 171.93359375 261.23828125 C172.19914062 261.81964844 172.4646875 262.40101563 172.73828125 263 C173.97121083 265.30872108 175.36801284 267.05746841 177.05859375 269.05078125 C188.5167819 283.61870731 192.88979964 300.27528418 195.93359375 318.23828125 C196.46726562 318.38523437 197.0009375 318.5321875 197.55078125 318.68359375 C205.88026517 321.19108545 213.53179634 324.37935212 218.37109375 331.92578125 C229.42299096 352.68711357 227.06902669 382.66196211 220.984375 404.671875 C219.32642513 409.60640565 217.4605686 413.33341624 213.93359375 417.23828125 C213.93359375 417.89828125 213.93359375 418.55828125 213.93359375 419.23828125 C212.81984375 419.67140625 212.81984375 419.67140625 211.68359375 420.11328125 C209.04273941 421.13934383 209.04273941 421.13934383 207.05859375 422.23828125 C204.12093118 423.62071069 201.05611304 424.36890233 197.93359375 425.23828125 C197.84384277 425.86057617 197.7540918 426.48287109 197.66162109 427.12402344 C193.23092563 457.19536876 185.18078464 485.25784325 162.93359375 507.23828125 C162.27359375 507.56828125 161.61359375 507.89828125 160.93359375 508.23828125 C160.93359375 508.89828125 160.93359375 509.55828125 160.93359375 510.23828125 C160.41152344 510.47289062 159.88945313 510.7075 159.3515625 510.94921875 C156.79824236 512.3104395 154.47884672 513.90586748 152.11132812 515.56445312 C145.95712414 519.84984124 139.72854865 523.55607097 132.93359375 526.73828125 C132.24048096 527.06393066 131.54736816 527.38958008 130.83325195 527.72509766 C126.61153156 529.64225658 122.42729263 531.05047312 117.93359375 532.23828125 C116.11997715 532.77619747 114.30733705 533.31742711 112.49609375 533.86328125 C111.63113281 534.12367188 110.76617188 534.3840625 109.875 534.65234375 C109.23433594 534.84570312 108.59367187 535.0390625 107.93359375 535.23828125 C107.93359375 535.89828125 107.93359375 536.55828125 107.93359375 537.23828125 C106.75796875 536.92890625 106.75796875 536.92890625 105.55859375 536.61328125 C104.69234375 536.48953125 103.82609375 536.36578125 102.93359375 536.23828125 C102.27359375 536.89828125 101.61359375 537.55828125 100.93359375 538.23828125 C103.56645893 541.44473492 106.61975449 542.45340304 110.43359375 543.92578125 C122.38786257 548.83148417 130.68808804 556.50822678 138.93359375 566.23828125 C144.98274213 564.9263231 148.96636145 562.47096755 153.80859375 558.67578125 C154.53965332 558.10786865 155.27071289 557.53995605 156.02392578 556.95483398 C169.35472436 546.3463218 180.90877937 533.98170198 190.93359375 520.23828125 C191.57425781 519.36945313 192.21492188 518.500625 192.875 517.60546875 C210.29042332 493.37192668 222.82053341 465.19782186 229.93359375 436.23828125 C230.43632813 434.38009766 230.43632813 434.38009766 230.94921875 432.484375 C233.99805374 420.79551092 236.002447 409.06116302 237.68359375 397.11328125 C237.84341736 395.9833223 237.84341736 395.9833223 238.00646973 394.83053589 C239.72969664 382.55362992 241.08034855 370.43900178 241.13671875 358.02734375 C241.14368774 356.98893341 241.15065674 355.95052307 241.15783691 354.88064575 C241.17515167 351.54148261 241.18155845 348.20248744 241.18359375 344.86328125 C241.18460083 343.72234009 241.18560791 342.58139893 241.18664551 341.40588379 C241.17614034 323.81343006 240.58248721 306.6553918 237.93359375 289.23828125 C237.78905762 288.2416748 237.64452148 287.24506836 237.49560547 286.21826172 C228.9071403 228.09632303 205.35345551 174.12791101 164.93359375 131.23828125 C163.89912109 130.14 163.89912109 130.14 162.84375 129.01953125 C156.80381811 122.79432537 150.15511687 117.05263 142.93359375 112.23828125 C141.72449162 111.23921094 140.51627488 110.2390688 139.30859375 109.23828125 C111.33005671 87.48722503 74.84854607 75.74609188 39.93359375 72.23828125 C38.93328125 72.12742187 37.93296875 72.0165625 36.90234375 71.90234375 C-9.60640658 67.46723096 -60.37087083 77.20813639 -99.06640625 104.23828125 Z M-170.06640625 425.23828125 C-170.39640625 425.89828125 -170.72640625 426.55828125 -171.06640625 427.23828125 C-170.07640625 426.90828125 -169.08640625 426.57828125 -168.06640625 426.23828125 C-168.72640625 425.90828125 -169.38640625 425.57828125 -170.06640625 425.23828125 Z " fill="#4E6067" transform="translate(492.06640625,154.76171875)"/>
<path d="M0 0 C1.6440598 -0.00271598 3.28811837 -0.0062803 4.93217468 -0.01062012 C9.36411173 -0.01967567 13.79595483 -0.0162279 18.22789335 -0.00986195 C22.88847304 -0.00476462 27.5490452 -0.00950386 32.20962524 -0.01263428 C40.03543527 -0.01626383 47.86120745 -0.01150219 55.68701172 -0.00195312 C64.7029014 0.00892184 73.71870055 0.00540871 82.73458803 -0.00560594 C90.50654219 -0.01471682 98.27846929 -0.01594536 106.05042708 -0.0107286 C110.67851405 -0.00762873 115.30655864 -0.00714431 119.93464279 -0.01380157 C124.28992456 -0.01962971 128.64509102 -0.01547941 133.00036049 -0.00401306 C134.58769478 -0.00139512 136.17503897 -0.00208172 137.76236916 -0.00653839 C160.40054059 -0.06417982 181.33130214 3.15161187 198.15869141 19.57128906 C215.76229129 38.05131284 216.666389 62.36618017 216.64697266 86.55566406 C216.65087119 88.60003749 216.65520819 90.64441012 216.65995789 92.68878174 C216.66737701 96.95498286 216.66716067 101.22110117 216.66186523 105.48730469 C216.65608165 110.90418981 216.67299615 116.32073176 216.69620991 121.73756027 C216.7110763 125.95540283 216.71180148 130.17316523 216.70870018 134.39102936 C216.70920711 136.38574146 216.7143239 138.38045881 216.7245121 140.37514496 C216.8368501 165.44275248 214.04051948 191.79869709 195.59619141 210.57128906 C172.27277231 233.19989102 140.72726942 233.89266723 110.15199566 233.76315951 C105.99555477 233.74909754 101.83913445 233.75579233 97.68267822 233.7592926 C90.71334779 233.7619771 83.74419134 233.74866816 76.77490234 233.7253418 C68.76084728 233.69870131 60.74708188 233.69700492 52.73299766 233.70873016 C44.96100203 233.71957067 37.18910939 233.71327466 29.41712189 233.69917488 C26.13683841 233.69347338 22.85663176 233.69345093 19.57634735 233.69824028 C15.70513043 233.70307161 11.83422413 233.69265889 7.9630661 233.67128563 C6.55718025 233.66580177 5.15126401 233.66517317 3.74537659 233.67023849 C-18.90720306 233.7415193 -40.66006537 227.98177207 -57.68505859 212.31738281 C-73.63346857 195.64116842 -79.81108617 174.34214101 -79.79907227 151.68432617 C-79.80243088 150.76115601 -79.80578949 149.83798584 -79.80924988 148.88684082 C-79.81870024 145.85325755 -79.82070031 142.81972987 -79.82177734 139.78613281 C-79.82499508 137.65873696 -79.82835954 135.53134132 -79.8318634 133.40394592 C-79.83784067 128.94808439 -79.83970485 124.49224221 -79.83911133 120.03637695 C-79.83901003 114.36351636 -79.85263507 108.69078183 -79.86988354 103.01795101 C-79.88107774 98.62265977 -79.88302824 94.22739823 -79.8825016 89.83209419 C-79.88367161 87.74279917 -79.88803748 85.65350313 -79.89583397 83.56422234 C-79.97453581 60.28717884 -78.75417285 38.22082975 -62.09130859 20.13378906 C-44.53405859 3.69074916 -23.31778062 -0.06528492 0 0 Z " fill="#F287AE" transform="translate(438.65380859375,422.7412109375)"/>
<path d="M0 0 C4.97672872 4.71073115 9.03303249 9.81881768 12 16 C12 16.99 12 17.98 12 19 C12.66 19.33 13.32 19.66 14 20 C14.57774759 34.65767039 12.92712181 44.78409395 3 56 C-5.18096627 64.33302884 -14.59137533 66.23618722 -26 66.4375 C-37.87051263 66.29858975 -46.04714592 63.12218425 -54.578125 54.80078125 C-63.31335279 44.69891298 -64.89652906 34.94120206 -64 22 C-61.97882803 11.85551905 -55.92253725 3.46845876 -47.5 -2.4375 C-31.84602784 -11.99182094 -14.62981725 -11.02017279 0 0 Z " fill="#EF87AD" transform="translate(533,286)"/>
<path d="M0 0 C7.82048686 3.55059286 12.74240343 9.54917409 15.75146484 17.44091797 C17.21589592 22.7077315 17.0937356 27.9136035 16.99609375 33.34375 C17.00318359 34.45492187 17.01027344 35.56609375 17.01757812 36.7109375 C16.93718345 47.22408715 15.38717013 55.69462953 7.9296875 63.42578125 C2.24205483 68.02648577 -4.96032597 70.10864504 -12.25 69.73046875 C-18.9763601 68.54346403 -24.71688914 65.1781396 -29.44140625 60.34375 C-34.23194616 52.51305976 -34.71506015 45.42078839 -34.79150391 36.42211914 C-34.80796165 35.00723709 -34.8351158 33.59243461 -34.87353516 32.17797852 C-35.13743211 22.39199112 -34.67015573 13.90921551 -27.65576172 6.44311523 C-19.80903374 -0.85738028 -10.39684481 -2.79467188 0 0 Z " fill="#4A5D63" transform="translate(442.44140625,486.65625)"/>
<path d="M0 0 C2.95873409 1.81341767 5.75344949 3.8014482 8.53515625 5.875 C22.15058475 15.88697912 36.72011381 17.33540071 53.1875 16.125 C63.59407169 14.2761167 72.19018773 9.51818444 80.1875 2.75 C83.99711644 -0.17869094 87.14953087 -0.72366649 91.91015625 -0.37890625 C94.1875 0.125 94.1875 0.125 97.3125 2 C100.01007954 6.49596591 100.21843816 10.0161287 99.1875 15.125 C94.98606993 25.61978557 84.14856203 32.02403919 74.3125 36.5 C53.98342893 44.4548539 30.68627662 45.34958448 10.484375 36.546875 C-0.05235384 31.70375973 -9.5999588 25.84582942 -14.8125 15.125 C-15.83434374 12.11440661 -15.92055353 10.42063258 -15.8125 7.125 C-14.20432692 3.90865384 -12.83539934 1.87512618 -9.9375 -0.25 C-6.34154783 -1.30763299 -3.48150815 -1.68072807 0 0 Z " fill="#485B61" transform="translate(465.8125,582.875)"/>
<path d="M0 0 C5.02750717 3.78199454 8.17192561 8.70624921 10.16015625 14.625 C10.57334825 19.2616398 10.57405832 23.89950559 10.58569336 28.55200195 C10.59753219 30.78905689 10.64670026 33.02329669 10.69726562 35.25976562 C10.8031321 44.57569099 9.9029236 52.2804251 3.48046875 59.51782227 C-1.50607238 64.42295997 -7.92961263 66.63662094 -14.83984375 67.0625 C-21.57762046 66.78007822 -28.07562599 63.25309725 -32.83984375 58.625 C-39.51200767 50.04650354 -39.17854287 41.66190708 -39.15234375 31.1875 C-39.16845703 29.90294922 -39.18457031 28.61839844 -39.20117188 27.29492188 C-39.20644936 17.0513312 -37.98712415 10.00923793 -30.7734375 2.390625 C-22.09942692 -5.52988567 -10.06630229 -5.76152586 0 0 Z " fill="#4A5D64" transform="translate(595.83984375,489.375)"/>
<path d="M0 0 C1.37577361 0.11617644 2.75061045 0.24345777 4.125 0.375 C4.89070312 0.44460937 5.65640625 0.51421875 6.4453125 0.5859375 C23.41588736 3.33651997 40.86819477 13.05937108 56 21 C57.81086924 21.87837 59.62317436 22.7537918 61.4375 23.625 C66.24371611 26.04006382 70.608191 28.90347107 75 32 C75.5264209 32.36786621 76.0528418 32.73573242 76.59521484 33.11474609 C84.27722909 38.48846801 91.7906795 43.99942785 99 50 C99.51498047 50.42474609 100.02996094 50.84949219 100.56054688 51.28710938 C113.22669897 61.76587464 125.02206472 72.8940612 135 86 C135.8146875 86.99773437 136.629375 87.99546875 137.46875 89.0234375 C162.15868889 119.28619678 186.2990679 160.7158461 194.1484375 199.21875 C194.42945313 200.4665625 194.71046875 201.714375 195 203 C195.66 203.33 196.32 203.66 197 204 C196.34 205.32 195.68 206.64 195 208 C194.74420166 207.23147705 194.48840332 206.4629541 194.22485352 205.67114258 C187.140312 184.49011524 179.38932238 163.90962877 169.06542969 144.05712891 C167.91748011 141.84067082 166.79085415 139.61400101 165.6640625 137.38671875 C152.92759062 112.43207546 136.82968027 89.79999512 117 70 C115.93274623 68.91098619 114.86639689 67.82108555 113.80078125 66.73046875 C107.19274363 59.99780462 100.5848473 53.64116036 93 48 C91.91754669 47.16591203 90.83554608 46.33123636 89.75390625 45.49609375 C74.94207947 34.20390897 58.84649221 24.89962777 42 17 C40.98534668 16.51370117 40.98534668 16.51370117 39.95019531 16.01757812 C27.01974016 9.84417329 13.64667062 5.32300949 0 1 C0 0.67 0 0.34 0 0 Z " fill="#303C3F" transform="translate(594,166)"/>
<path d="M0 0 C6.59866192 0.54668028 12.25067887 2.24978661 18.4375 4.5625 C19.40397461 4.92110107 20.37044922 5.27970215 21.36621094 5.64916992 C47.93855185 15.67849602 70.56678071 30.32240053 91 50 C91.87519287 50.84232178 91.87519287 50.84232178 92.76806641 51.70166016 C99.71175802 58.42485879 106.38233433 65.10420263 112 73 C112.76570312 74.03382813 113.53140625 75.06765625 114.3203125 76.1328125 C133.92916995 102.78064958 148.06838155 132.87309586 157.5625 164.5 C158.06475098 166.17304199 158.06475098 166.17304199 158.57714844 167.87988281 C160.32711328 173.94851748 161.51694375 179.70041709 162 186 C159.52202611 183.52202611 159.2826531 181.83531641 158.44140625 178.4453125 C158.14363281 177.28676758 157.84585938 176.12822266 157.5390625 174.93457031 C157.21679688 173.67741211 156.89453125 172.42025391 156.5625 171.125 C144.85985503 126.75015142 123.41231122 87.38158456 92 54 C91.38382813 53.34128906 90.76765625 52.68257813 90.1328125 52.00390625 C81.86159394 43.4294652 81.86159394 43.4294652 71.98046875 37.05078125 C69.14762406 35.5477532 67.2570381 33.26383641 65 31 C47.96707487 18.84095405 28.31099992 9.88579994 8.23193359 4.21875 C6.8699585 3.83203125 6.8699585 3.83203125 5.48046875 3.4375 C4.64797607 3.20933594 3.8154834 2.98117188 2.95776367 2.74609375 C1 2 1 2 0 0 Z " fill="#2F393C" transform="translate(564,232)"/>
<path d="M0 0 C0.33 0 0.66 0 1 0 C0.6108724 8.48298163 -1.18752149 16.09435897 -3.6875 24.1875 C-4.04980713 25.38004395 -4.41211426 26.57258789 -4.78540039 27.80126953 C-7.51858141 36.68727752 -10.46110016 45.40201205 -14 54 C-14.32049316 54.79003418 -14.64098633 55.58006836 -14.97119141 56.39404297 C-24.83694226 80.58741897 -37.18737521 103.63572411 -52.625 124.75 C-53.22924805 125.57886719 -53.83349609 126.40773438 -54.45605469 127.26171875 C-55.01969727 128.01582031 -55.58333984 128.76992188 -56.1640625 129.546875 C-56.66373535 130.21557617 -57.1634082 130.88427734 -57.67822266 131.57324219 C-58.33250244 132.2794873 -58.33250244 132.2794873 -59 133 C-59.66 133 -60.32 133 -61 133 C-59.71091783 130.2676249 -58.28997349 127.91110953 -56.453125 125.515625 C-28.31410972 88.12933936 -11.40019063 45.045886 0 0 Z " fill="#303B3E" transform="translate(795,593)"/>
<path d="M0 0 C3.53324284 3.14667361 5.35463239 6.33645903 7.4375 10.5625 C12.41640744 20.29107895 18.66261078 29.11915668 25 38 C25.42990234 38.60537598 25.85980469 39.21075195 26.30273438 39.83447266 C30.9591054 46.35146797 35.97911618 52.38167995 41.4453125 58.234375 C43.45834355 60.41361962 45.3999885 62.62161874 47.33203125 64.87109375 C50.86691248 68.92334439 54.62981032 72.64879145 58.5625 76.3125 C59.24634766 76.9526001 59.93019531 77.5927002 60.63476562 78.25219727 C67.11518326 84.24210402 73.9494665 89.70108342 81 95 C79.515 95.495 79.515 95.495 78 96 C75.86746563 94.49034977 74.00042507 92.98354343 72.0625 91.25 C71.48693359 90.74774902 70.91136719 90.24549805 70.31835938 89.72802734 C68.53478659 88.16373829 66.76604327 86.58403319 65 85 C64.48163574 84.53948242 63.96327148 84.07896484 63.42919922 83.60449219 C49.64974758 71.34109514 36.83849594 58.49974209 26.19140625 43.36328125 C25.79824219 42.91339844 25.40507812 42.46351563 25 42 C24.34 42 23.68 42 23 42 C22.91363281 41.45214844 22.82726562 40.90429688 22.73828125 40.33984375 C21.76375309 37.2512598 20.11056707 35.17163424 18.1875 32.5625 C13.89748048 26.57731704 10.15634636 20.32636282 6.5 13.9375 C5.97172607 13.02105713 5.44345215 12.10461426 4.89916992 11.16040039 C4.16017456 9.85703735 4.16017456 9.85703735 3.40625 8.52734375 C2.96603516 7.75124756 2.52582031 6.97515137 2.07226562 6.17553711 C1.05411302 4.10979078 0.45798391 2.24930228 0 0 Z " fill="#2D3739" transform="translate(249,674)"/>
<path d="M0 0 C0.33 0 0.66 0 1 0 C1.02766303 2.2499264 1.04668646 4.49995912 1.0625 6.75 C1.07410156 8.00296875 1.08570313 9.2559375 1.09765625 10.546875 C1.07444326 13.77937622 0.82457254 16.93685799 0.5 20.15234375 C-0.20567107 28.43784199 -0.12463101 36.7072471 -0.09765625 45.015625 C-0.09578689 46.72483275 -0.09436544 48.43404103 -0.09336853 50.14324951 C-0.08958414 54.60159839 -0.07978959 59.05991372 -0.06866455 63.51824951 C-0.05836184 68.08377631 -0.05385209 72.64930863 -0.04882812 77.21484375 C-0.03816291 86.14324375 -0.02113663 95.07161907 0 104 C-5.28738571 96.06892143 -3.15945787 82.12415544 -3.16796875 72.80859375 C-3.17129715 71.50205338 -3.17462555 70.195513 -3.17805481 68.84938049 C-3.18398326 66.10229669 -3.18590139 63.35524403 -3.18530273 60.6081543 C-3.18522175 57.84018378 -3.1921302 55.07237976 -3.20581055 52.30444336 C-3.39817028 12.78996987 -3.39817028 12.78996987 0 0 Z " fill="#303D40" transform="translate(213,438)"/>
<path d="M0 0 C0.66 0.33 1.32 0.66 2 1 C0.68 2.32 -0.64 3.64 -2 5 C4.59783398 13.20040865 11.43956186 21.16205842 18.34912109 29.09912109 C22.43600203 33.80489675 26.48602109 38.54237958 30.53271484 43.28271484 C31.52402316 44.44292494 32.51656868 45.60207891 33.51025391 46.76025391 C36.703578 50.48252719 39.86184934 54.23109149 43 58 C43.56976562 58.65355469 44.13953125 59.30710937 44.7265625 59.98046875 C48.60984982 64.76077273 49.78297331 69.96498866 50 76 C49.11632556 84.21817228 44.41366751 90.95416325 39 97 C38.34 97 37.68 97 37 97 C38.36495949 94.04696265 39.96598366 91.65735035 42 89.125 C46.73496123 82.80400041 47.50892209 77.83069931 46.65234375 70.015625 C44.85600258 61.71158078 38.18727625 55.84481972 32.578125 49.82421875 C30.09183227 47.10059807 27.75266331 44.30716921 25.4375 41.4375 C22.55151207 37.86171531 19.59555196 34.39598682 16.5 31 C12.57334591 26.69092394 8.88501778 22.22650966 5.21875 17.6953125 C1.9257499 13.69501308 -1.52128406 9.83890997 -5 6 C-3.86695008 2.60085025 -2.87481525 1.94745549 0 0 Z " fill="#313D3F" transform="translate(692,766)"/>
<path d="M0 0 C1.6254308 0.14095064 3.25034051 0.28792087 4.875 0.4375 C5.77992188 0.51871094 6.68484375 0.59992187 7.6171875 0.68359375 C10 1 10 1 12 2 C12 2.66 12 3.32 12 4 C10.82824219 4.49628906 9.65648437 4.99257813 8.44921875 5.50390625 C-6.08477684 11.74824461 -19.49965186 18.05942904 -28 32 C-36.98355802 30.68455043 -44.16976264 24.05767164 -50.9375 18.375 C-51.48083984 17.92012207 -52.02417969 17.46524414 -52.58398438 16.99658203 C-55.78326781 14.24651306 -58.47201956 11.3747016 -61 8 C-57.48551247 8.9584966 -55.47999088 10.39230044 -53.0625 13 C-47.00157038 19.38346247 -39.28958334 24.14027777 -32 29 C-31.01 29 -30.02 29 -29 29 C-28.07790248 27.59977783 -27.16141745 26.19554072 -26.2734375 24.7734375 C-20.22156661 16.34537191 -9.37082625 10.08471913 0 6 C0.66 6 1.32 6 2 6 C1.34 4.02 0.68 2.04 0 0 Z " fill="#354245" transform="translate(416,690)"/>
<path d="M0 0 C2.4752102 2.4752102 2.68722345 4.18401709 3.5625 7.5625 C10.93108333 32.23360863 28.64308054 53.48054417 51 66 C56.56688005 68.88627072 62.25802445 71.48393238 68 74 C64.11677326 75.28181083 62.16208811 74.4304503 58.51904297 72.60083008 C57.83213379 72.23755615 57.14522461 71.87428223 56.4375 71.5 C55.72223145 71.12834717 55.00696289 70.75669434 54.27001953 70.3737793 C52.16915971 69.26810088 50.08250298 68.13981468 48 67 C46.51306641 66.18982422 46.51306641 66.18982422 44.99609375 65.36328125 C23.05292935 52.38051483 9.16977741 30.80520972 0.59375 7.33203125 C-0.04971723 4.80472903 -0.11072421 2.59740536 0 0 Z " fill="#313C3E" transform="translate(329,610)"/>
<path d="M0 0 C3.80147626 0.02414821 7.60227235 0.02045952 11.40380859 0.01391602 C13.8321982 0.01947752 16.26058489 0.02657765 18.68896484 0.03540039 C19.81998627 0.03448898 20.95100769 0.03357758 22.11630249 0.03263855 C23.67666733 0.04693657 23.67666733 0.04693657 25.26855469 0.06152344 C26.18132172 0.06613083 27.09408875 0.07073822 28.03451538 0.07548523 C30.35302734 0.33618164 30.35302734 0.33618164 33.35302734 2.33618164 C32.33303398 2.34831192 32.33303398 2.34831192 31.29243469 2.36068726 C24.77958793 2.43970485 18.26691358 2.52728306 11.75430012 2.62370872 C8.40873498 2.67296177 5.06322879 2.7183328 1.7175293 2.75805664 C-12.74581559 2.93182313 -27.05576613 3.28918923 -41.43530273 4.9206543 C-45.19861963 5.33669724 -48.86263151 5.41362511 -52.64697266 5.33618164 C-49.25093802 1.940147 -44.49012273 2.27521275 -39.85791016 1.73071289 C-38.74910492 1.59985794 -37.64029968 1.46900299 -36.49789429 1.33418274 C-24.33797582 0.02267172 -12.21893444 -0.08327049 0 0 Z " fill="#313D41" transform="translate(505.64697265625,154.663818359375)"/>
<path d="M0 0 C2.42326004 1.6698039 4.17407033 3.64379357 6.10668945 5.86132812 C6.89688477 6.76109375 7.68708008 7.66085937 8.5012207 8.58789062 C9.25790039 9.461875 10.01458008 10.33585938 10.79418945 11.23632812 C11.96050246 12.56997083 13.12713765 13.90333189 14.29418945 15.23632812 C14.85106445 15.87570312 15.40793945 16.51507812 15.98168945 17.17382812 C18.0663011 19.54597241 20.17847589 21.89188878 22.29418945 24.23632812 C28.22949591 30.81655752 34.03891516 37.49844603 39.79418945 44.23632812 C39.29918945 45.22632813 39.29918945 45.22632813 38.79418945 46.23632812 C33.53580982 41.10087165 28.56493119 35.82517394 23.79418945 30.23632812 C22.89992117 29.19443569 22.00536713 28.15278849 21.1105957 27.11132812 C18.54651942 24.12499324 15.98652722 21.13518462 13.42749023 18.14453125 C10.63488326 14.88189805 7.83937616 11.62175115 5.04418945 8.36132812 C4.02855163 7.17644328 3.01292541 5.99154849 1.99731445 4.80664062 C1.2702832 3.9584375 0.54325195 3.11023438 -0.20581055 2.23632812 C-6.42183441 3.57898928 -12.56566685 5.08359777 -18.70581055 6.73632812 C-36.62280197 11.55900934 -36.62280197 11.55900934 -44.20581055 11.23632812 C-41.05071426 9.48380875 -38.06974437 8.63367698 -34.54956055 7.86914062 C-33.44354492 7.62292969 -32.3375293 7.37671875 -31.19799805 7.12304688 C-28.90133028 6.62209585 -26.60446062 6.12206935 -24.30737305 5.62304688 C-17.5686937 4.12123958 -11.18999993 2.30194886 -4.74682617 -0.19384766 C-2.20581055 -0.76367188 -2.20581055 -0.76367188 0 0 Z " fill="#2C373A" transform="translate(616.205810546875,806.763671875)"/>
<path d="M0 0 C4.15936842 1.47615293 7.52547725 3.54990115 11.1875 6 C35.33704 21.77533661 61.34341049 32.13159984 89 40 C89 40.33 89 40.66 89 41 C81.11471845 40.48829556 74.20377648 38.36283033 66.75 35.8125 C65.55375 35.40974854 64.3575 35.00699707 63.125 34.59204102 C55.91257178 32.12310322 48.97757306 29.47600619 42.1875 25.99609375 C39.94555829 24.79279247 39.94555829 24.79279247 37 25 C37 24.34 37 23.68 37 23 C36.33871094 22.7525 35.67742187 22.505 34.99609375 22.25 C4.83278418 9.66556837 4.83278418 9.66556837 0 0 Z " fill="#2F3A3D" transform="translate(331,771)"/>
<path d="M0 0 C-0.52207031 0.3309668 -1.04414063 0.66193359 -1.58203125 1.00292969 C-17.07094649 10.85642962 -32.01577816 20.92252556 -45.39453125 33.54296875 C-47.61342095 35.63544495 -49.86970601 37.64417409 -52.1875 39.625 C-56.68679081 43.51807057 -60.83859451 47.75189856 -65 52 C-65 49 -65 49 -63.28759766 46.9152832 C-62.50433105 46.13499756 -61.72106445 45.35471191 -60.9140625 44.55078125 C-59.64175781 43.27944336 -59.64175781 43.27944336 -58.34375 41.98242188 C-57.4465625 41.10134766 -56.549375 40.22027344 -55.625 39.3125 C-54.29082031 37.97348633 -54.29082031 37.97348633 -52.9296875 36.60742188 C-46.26674107 30 -46.26674107 30 -44 30 C-44 29.34 -44 28.68 -44 28 C-42.05973085 26.28419939 -40.11495873 24.69787377 -38.0625 23.125 C-37.44149414 22.64393799 -36.82048828 22.16287598 -36.18066406 21.66723633 C-5.54437417 -1.84812472 -5.54437417 -1.84812472 0 0 Z " fill="#323E41" transform="translate(362,193)"/>
<path d="M0 0 C1.12941807 3.39010117 1.07637312 3.83689157 -0.5546875 7.3203125 C-1.31190363 8.59829314 -2.08642755 9.86612579 -2.875 11.125 C-3.28194092 11.78935059 -3.68888184 12.45370117 -4.1081543 13.13818359 C-7.26896268 18.15782665 -10.83654672 22.57346381 -14.95703125 26.8515625 C-17.10053363 29.03142968 -17.10053363 29.03142968 -19.13671875 31.7734375 C-19.75160156 32.50820313 -20.36648438 33.24296875 -21 34 C-21.66 34 -22.32 34 -23 34 C-23 34.66 -23 35.32 -23 36 C-24.98494262 37.6454532 -26.9583298 39.14456596 -29.0625 40.625 C-29.68576172 41.06577881 -30.30902344 41.50655762 -30.95117188 41.96069336 C-35.49002818 45.10180366 -40.14571933 47.93688355 -45 50.5625 C-45.91471069 51.06354248 -45.91471069 51.06354248 -46.84790039 51.57470703 C-50.54791568 53.50934891 -53.85418971 54.53865221 -58 55 C-54.76606666 52.35763983 -51.40277271 50.69671452 -47.625 48.9375 C-25.87150954 38.34133414 -10.48414592 21.63546477 0 0 Z " fill="#2F3B3E" transform="translate(676,629)"/>
<path d="M0 0 C-1.39798828 0.76570313 -1.39798828 0.76570313 -2.82421875 1.546875 C-23.7682258 13.348964 -38.7450728 30.76320418 -46 54 C-46.33 54 -46.66 54 -47 54 C-46.65683348 47.82300257 -45.05466655 43.60572972 -42.05859375 38.19921875 C-40.78314031 35.95626505 -40.78314031 35.95626505 -41 33 C-39.89570359 31.89570359 -38.78288335 30.79905823 -37.63671875 29.73828125 C-34.62798215 26.542845 -32.2597827 22.83490535 -29.76953125 19.23046875 C-29.18558594 18.49441406 -28.60164063 17.75835937 -28 17 C-27.34 17 -26.68 17 -26 17 C-25.79632813 16.443125 -25.59265625 15.88625 -25.3828125 15.3125 C-23.47743776 12.12611061 -20.80310787 10.18803212 -17.875 8 C-17.29186035 7.55938232 -16.7087207 7.11876465 -16.10791016 6.66479492 C-4.91875369 -1.63958456 -4.91875369 -1.63958456 0 0 Z " fill="#2C373B" transform="translate(377,399)"/>
<path d="M0 0 C4.11544208 12.34632623 -10.42390621 36.92235526 -15.8515625 47.89453125 C-20.43759895 56.87794306 -25.28833344 65.67617194 -31 74 C-31.33 73.01 -31.66 72.02 -32 71 C-30.62890625 68.42578125 -30.62890625 68.42578125 -28.5625 65.3125 C-16.21100115 46.06093544 -8.13444009 24.65730935 -1.62915039 2.83154297 C-1 1 -1 1 0 0 Z " fill="#2E393C" transform="translate(721,594)"/>
<path d="M0 0 C0.99 0.33 1.98 0.66 3 1 C3 12.88 3 24.76 3 37 C25.77 37 48.54 37 72 37 C72 37.33 72 37.66 72 38 C48.57 38 25.14 38 1 38 C1 26.12 1 14.24 1 2 C0.01 1.67 -0.98 1.34 -2 1 C-1.34 0.67 -0.68 0.34 0 0 Z " fill="#182324" transform="translate(520,350)"/>
<path d="M0 0 C0.66 0.33 1.32 0.66 2 1 C-9.50522265 15.64024364 -21.89610239 29.24629355 -37.1875 40 C-40.04648541 41.70151475 -40.04648541 41.70151475 -41 44 C-44.0625 44.625 -44.0625 44.625 -47 45 C-43.78853706 41.5920422 -40.49806182 38.81501565 -36.68383789 36.10717773 C-22.92151739 26.3202273 -11.32237664 14.32524985 -1 1 C-0.67 0.67 -0.34 0.34 0 0 Z " fill="#344043" transform="translate(681,677)"/>
<path d="M0 0 C0.33 0 0.66 0 1 0 C1.34880803 10.11543287 1.34880803 10.11543287 -1 14 C-3.40588506 14.91351275 -5.82512726 15.48644574 -8.32421875 16.09765625 C-14.54429868 18.19523065 -19.11270384 23.23338364 -22 29 C-22.88763152 31.9053643 -23.54799358 34.84389628 -24.1875 37.8125 C-24.36474609 38.60076172 -24.54199219 39.38902344 -24.72460938 40.20117188 C-25.15766255 42.13235497 -25.57992568 44.06595223 -26 46 C-26.33 46 -26.66 46 -27 46 C-27.4825691 36.02690531 -25.48970626 26.8578065 -19 19 C-15.76324398 16.02652079 -12.29870246 14.04060544 -8.25 12.375 C-4.50316715 10.88787065 -4.50316715 10.88787065 -2 8 C-1.59952556 5.67724823 -1.2602896 3.34260643 -1 1 C-0.67 0.67 -0.34 0.34 0 0 Z " fill="#313D40" transform="translate(327,462)"/>
<path d="M0 0 C0.99 0.495 0.99 0.495 2 1 C2.64158599 3.56634394 3.02199146 6.13823206 3.4375 8.75 C3.623125 9.4925 3.80875 10.235 4 11 C4.66 11.33 5.32 11.66 6 12 C6 13.65 6 15.3 6 17 C6.66 17.33 7.32 17.66 8 18 C8.67358398 19.86767578 8.67358398 19.86767578 9.30859375 22.3203125 C11.0360114 28.42001858 13.48890671 34.09097082 16.0625 39.875 C16.73249023 41.40253906 16.73249023 41.40253906 17.41601562 42.9609375 C19.64156925 48.12856959 19.64156925 48.12856959 22.20483398 53.12939453 C23 55 23 55 22 58 C14.87790329 44.08118156 8.6296246 30.20384367 3.625 15.375 C3.26664062 14.31861328 2.90828125 13.26222656 2.5390625 12.17382812 C2.0440625 10.67625977 2.0440625 10.67625977 1.5390625 9.1484375 C1.24209473 8.25302246 0.94512695 7.35760742 0.63916016 6.43505859 C0 4 0 4 0 0 Z " fill="#2E393C" transform="translate(294,589)"/>
<path d="M0 0 C0.33 0 0.66 0 1 0 C1.99686161 7.90354218 2.13140792 15.70518738 2.09765625 23.6640625 C2.0962413 24.93728363 2.09482635 26.21050476 2.09336853 27.52230835 C2.08875005 30.87264978 2.07979885 34.22292027 2.06866455 37.57324219 C2.0583512 41.00585321 2.05384986 44.43847163 2.04882812 47.87109375 C2.03785054 54.5807484 2.02115135 61.29037012 2 68 C1.67 68 1.34 68 1 68 C-0.09403242 62.49306368 -0.3392081 57.03220269 -0.5625 51.4375 C-0.6042334 50.4055249 -0.6459668 49.3735498 -0.68896484 48.31030273 C-1.00132298 39.72810367 -1.10693716 31.15001324 -1.125 22.5625 C-1.12959229 21.34941162 -1.13418457 20.13632324 -1.13891602 18.88647461 C-1.12781294 12.50575967 -0.85232183 6.32476911 0 0 Z " fill="#263235" transform="translate(283,471)"/>
<path d="M0 0 C4.13961358 1.37987119 5.10134055 4.19532455 7.125 7.8125 C13.69958547 19.12712138 21.72542131 29.02955406 30.30078125 38.87109375 C32.60808224 41.52388164 34.82548224 44.23665796 37 47 C36.505 47.99 36.505 47.99 36 49 C21.89213687 35.98357614 7.50268066 17.7534362 0 0 Z " fill="#2D393B" transform="translate(317,648)"/>
<path d="M0 0 C3.4490605 2.69194966 6.41860465 5.3847625 9.2421875 8.73046875 C12.80093741 12.84173794 16.58595313 16.60793393 20.5625 20.3125 C21.24634766 20.9526001 21.93019531 21.5927002 22.63476562 22.25219727 C29.11518326 28.24210402 35.9494665 33.70108342 43 39 C42.01 39.33 41.02 39.66 40 40 C37.86746563 38.49034977 36.00042507 36.98354343 34.0625 35.25 C33.48693359 34.74774902 32.91136719 34.24549805 32.31835938 33.72802734 C30.53478659 32.16373829 28.76604327 30.58403319 27 29 C26.48163574 28.53948242 25.96327148 28.07896484 25.42919922 27.60449219 C19.43145607 22.26663785 13.61283006 16.74010426 7.875 11.125 C7.0396875 10.3218335 7.0396875 10.3218335 6.1875 9.50244141 C3.20367848 6.54367063 1.2108496 4.05111409 0 0 Z " fill="#303B3E" transform="translate(287,730)"/>
<path d="M0 0 C1.32 0 2.64 0 4 0 C4 0.66 4 1.32 4 2 C5.65 1.67 7.3 1.34 9 1 C9 1.66 9 2.32 9 3 C9.87398437 3.20302734 9.87398437 3.20302734 10.765625 3.41015625 C24.27404421 6.95717828 38.26803916 16.05060598 46 28 C46 28.66 46 29.32 46 30 C46.66 30.33 47.32 30.66 48 31 C45.20171644 30.61402985 44.1794116 30.19863427 42.25 28.0625 C41 26 41 26 41 24 C40.34 24 39.68 24 39 24 C37.85285793 22.85285793 36.70766441 21.70372437 35.5703125 20.546875 C25.88494915 11.00606931 13.05520226 5.4109746 0 2 C0 1.34 0 0.68 0 0 Z " fill="#334144" transform="translate(585,692)"/>
<path d="M0 0 C1.65 0 3.3 0 5 0 C4.34 0.66 3.68 1.32 3 2 C2.44842734 4.18480684 2.44842734 4.18480684 2.140625 6.7421875 C1.9974585 7.71712158 1.85429199 8.69205566 1.70678711 9.6965332 C1.55604736 10.74542725 1.40530762 11.79432129 1.25 12.875 C-0.03755709 21.18741847 -1.64608408 29.25127645 -4.0625 37.3125 C-4.30774414 38.14700684 -4.55298828 38.98151367 -4.80566406 39.84130859 C-6.02350946 43.73857689 -6.89929328 46.22392958 -10 49 C-9.00670355 44.03351774 -7.77801982 39.27322823 -6.22216797 34.45068359 C-2.63657388 23.16840346 -1.25006595 11.74252484 0 0 Z " fill="#2C373A" transform="translate(688,578)"/>
<path d="M0 0 C0.66 0.33 1.32 0.66 2 1 C1.32517578 2.05960937 1.32517578 2.05960937 0.63671875 3.140625 C-7.76613538 16.54477707 -15.92438867 30.36482574 -22 45 C-22.71875 43.46484375 -22.71875 43.46484375 -23 41 C-21.93388298 38.39689762 -20.81929775 36.03145895 -19.5 33.5625 C-19.13269775 32.85456299 -18.76539551 32.14662598 -18.38696289 31.41723633 C-17.26940144 29.27193251 -16.13536766 27.13591984 -15 25 C-14.3832462 23.81555594 -13.76729741 22.63069218 -13.15234375 21.4453125 C-3.93560127 3.93560127 -3.93560127 3.93560127 0 0 Z " fill="#313D40" transform="translate(267,281)"/>
<path d="M0 0 C1.6254308 0.14095064 3.25034051 0.28792087 4.875 0.4375 C5.77992188 0.51871094 6.68484375 0.59992187 7.6171875 0.68359375 C10 1 10 1 12 2 C12 2.66 12 3.32 12 4 C10.19015625 4.77923828 10.19015625 4.77923828 8.34375 5.57421875 C6.7290224 6.27831509 5.11444717 6.98276091 3.5 7.6875 C2.31277344 8.19700195 2.31277344 8.19700195 1.1015625 8.71679688 C-3.69123706 10.81855734 -8.0035886 13.14487744 -12.29101562 16.15551758 C-14 17 -14 17 -17 16 C-1.60273973 6 -1.60273973 6 2 6 C1.34 4.02 0.68 2.04 0 0 Z " fill="#3A464A" transform="translate(416,690)"/>
<path d="M0 0 C3.43120275 1.14373425 4.39426848 2.64976557 6.59033203 5.40039062 C8.86034836 7.97627337 11.60719725 9.84989032 14.4375 11.75 C15.25831055 12.32814453 15.25831055 12.32814453 16.09570312 12.91796875 C22.28010755 17.14824775 27.47645004 18.31139758 34.875 18.125 C35.56335938 18.11597656 36.25171875 18.10695313 36.9609375 18.09765625 C38.64077838 18.07432513 40.32043746 18.03846326 42 18 C41.67 18.66 41.34 19.32 41 20 C32.49412012 22.09271648 23.92316756 20.60993549 16.25390625 16.53515625 C13.15574685 14.42497142 10.40020094 12.01459927 7.625 9.5 C7.10059326 9.02506104 6.57618652 8.55012207 6.03588867 8.06079102 C3.39748385 5.58505411 1.32909385 3.39479394 0 0 Z " fill="#313C3F" transform="translate(664,862)"/>
<path d="M0 0 C0.33 0 0.66 0 1 0 C0.8335224 12.09232735 -1.11721836 22.55224159 -5 34 C-5.33 34 -5.66 34 -6 34 C-5.96744792 32.01432292 -5.93489583 30.02864583 -5.90234375 28.04296875 C-5.91736783 25.79694539 -5.91736783 25.79694539 -7 23 C-6.34 23 -5.68 23 -5 23 C-4.89042969 22.26136719 -4.78085937 21.52273438 -4.66796875 20.76171875 C-3.56144746 13.6817817 -2.02896862 6.87144038 0 0 Z " fill="#404E53" transform="translate(727,568)"/>
<path d="M0 0 C5.51177422 0.40330055 9.12347558 2.16703203 13 6 C18.87604368 14.06779453 21.39677115 21.08072134 21 31 C20.67 31 20.34 31 20 31 C19.65388672 29.515 19.65388672 29.515 19.30078125 28 C16.94298944 18.27703296 15.0089336 10.46443217 6.3125 4.625 C5.54550781 4.16351563 4.77851562 3.70203125 3.98828125 3.2265625 C2 2 2 2 0 0 Z " fill="#2E3A3D" transform="translate(695,476)"/>
<path d="M0 0 C0 3 0 3 -2.66796875 5.9609375 C-3.83364975 7.1066354 -5.00720588 8.24436227 -6.1875 9.375 C-7.0547168 10.22191406 -7.0547168 10.22191406 -7.93945312 11.0859375 C-9.08310918 12.20245595 -10.22979959 13.31587552 -11.37963867 14.42602539 C-12.85289135 15.85710269 -14.3028301 17.31208315 -15.75 18.76953125 C-18.0416201 21.04125881 -20.44673056 23.03033501 -23 25 C-21.84826645 22.53199953 -20.95216435 20.95216435 -19 19 C-19 18.01 -19 17.02 -19 16 C-18.40525879 15.73195557 -17.81051758 15.46391113 -17.19775391 15.18774414 C-14.98187204 13.99020301 -13.57920472 12.79681017 -11.8359375 10.99609375 C-11.27132813 10.42052734 -10.70671875 9.84496094 -10.125 9.25195312 C-9.5475 8.65318359 -8.97 8.05441406 -8.375 7.4375 C-7.21839849 6.24650616 -6.05964222 5.05759995 -4.8984375 3.87109375 C-4.38974121 3.34443115 -3.88104492 2.81776855 -3.35693359 2.27514648 C-2 1 -2 1 0 0 Z " fill="#56686F" transform="translate(314,228)"/>
<path d="M0 0 C0.33 0 0.66 0 1 0 C0.33020896 7.32150894 -1.01670597 14.37910423 -2.5625 21.5625 C-2.79646484 22.66658203 -3.03042969 23.77066406 -3.27148438 24.90820312 C-3.84381062 27.60631255 -4.42006002 30.30351875 -5 33 C-5.33 33 -5.66 33 -6 33 C-6.29860143 25.64981084 -5.20740796 19.15059162 -3.5625 12 C-3.33240234 10.95199219 -3.10230469 9.90398437 -2.86523438 8.82421875 C-1.14773261 1.14773261 -1.14773261 1.14773261 0 0 Z " fill="#313D41" transform="translate(222,389)"/>
<path d="M0 0 C5.98974905 0.50249573 10.68145577 1.8109869 16.125 4.3125 C16.80175781 4.60833984 17.47851562 4.90417969 18.17578125 5.20898438 C22.42116136 7.10996212 26.28233361 9.19148256 30 12 C30 12.66 30 13.32 30 14 C25.56953874 12.34287011 21.447797 10.22260814 17.25 8.0625 C11.60076446 5.1888706 6.11400909 2.74685974 0 1 C0 0.67 0 0.34 0 0 Z " fill="#334042" transform="translate(619,392)"/>
<path d="M0 0 C3.9444397 1.33188873 6.3059322 2.94652606 9.20703125 5.9140625 C10.33334961 7.05488281 10.33334961 7.05488281 11.48242188 8.21875 C12.25134766 9.0128125 13.02027344 9.806875 13.8125 10.625 C14.60076172 11.42679688 15.38902344 12.22859375 16.20117188 13.0546875 C18.14106673 15.02985317 20.07360084 17.01168427 22 19 C21.34 19.66 20.68 20.32 20 21 C18.7625 19.4840625 18.7625 19.4840625 17.5 17.9375 C15.16766027 15.20360178 12.73977265 12.82353796 10 10.5 C6.22126802 7.29534461 3.13122204 3.83574699 0 0 Z " fill="#394548" transform="translate(699,223)"/>
<path d="M0 0 C0.66 0.66 1.32 1.32 2 2 C1.06027344 3.73636719 1.06027344 3.73636719 0.1015625 5.5078125 C-0.72420493 7.04674271 -1.54971203 8.58581262 -2.375 10.125 C-2.7875 10.88554687 -3.2 11.64609375 -3.625 12.4296875 C-5.82502206 16.5458578 -7.69018349 20.49480694 -9 25 C-9.33 25 -9.66 25 -10 25 C-9.65683348 18.82300257 -8.05466655 14.60572972 -5.05859375 9.19921875 C-3.78314031 6.95626505 -3.78314031 6.95626505 -4 4 C-2 1.8125 -2 1.8125 0 0 Z " fill="#344044" transform="translate(340,428)"/>
<path d="M0 0 C8.7832879 2.47029972 16.39613098 11.49739863 21 19 C20.67 19.99 20.34 20.98 20 22 C19.47792969 21.32195312 18.95585938 20.64390625 18.41796875 19.9453125 C13.39427553 13.59311196 8.18695356 8.20099939 2.08984375 2.8984375 C1.40019531 2.27195312 0.71054687 1.64546875 0 1 C0 0.67 0 0.34 0 0 Z " fill="#283436" transform="translate(651,407)"/>
<path d="M0 0 C-0.33 0.99 -0.66 1.98 -1 3 C-2.85546875 3.66015625 -2.85546875 3.66015625 -5.1875 4.0625 C-8.9206148 4.78292566 -12.45420066 5.58168026 -16 7 C-16.33 7.66 -16.66 8.32 -17 9 C-20 8 -20 8 -23 6 C-19.73120384 4.99325541 -16.4596529 3.99577511 -13.1875 3 C-12.25873047 2.71382812 -11.32996094 2.42765625 -10.37304688 2.1328125 C-9.48037109 1.86210938 -8.58769531 1.59140625 -7.66796875 1.3125 C-6.84578857 1.06113281 -6.0236084 0.80976562 -5.17651367 0.55078125 C-3 0 -3 0 0 0 Z " fill="#384446" transform="translate(617,684)"/>
<path d="M0 0 C6.95670365 1.13424516 10.02742733 3.28529589 14.5 8.625 C15.03625 9.23601562 15.5725 9.84703125 16.125 10.4765625 C17.43240967 11.97074498 18.71848964 13.48354607 20 15 C19.67 15.66 19.34 16.32 19 17 C18.38253906 16.34773438 17.76507812 15.69546875 17.12890625 15.0234375 C12.27544563 10.01484344 7.57853799 5.69934932 1.6171875 2.05859375 C1.08351563 1.70925781 0.54984375 1.35992187 0 1 C0 0.67 0 0.34 0 0 Z " fill="#333F41" transform="translate(622,431)"/>
<path d="M0 0 C1.7711042 2.6566563 2.46406077 4.27265499 3.3125 7.25 C5.24140602 13.2619203 8.50586053 17.63650412 13 22 C8.65885756 21.26866283 7.07249631 19.28297011 4.39453125 15.9609375 C0.69336815 10.75650087 -0.38714192 6.3233181 0 0 Z " fill="#2D393C" transform="translate(302,553)"/>
<path d="M0 0 C0.66 0 1.32 0 2 0 C-0.11553389 4.49363846 -3.02144332 8.23599496 -6 12.1875 C-6.5465625 12.92419922 -7.093125 13.66089844 -7.65625 14.41992188 C-8.44515625 15.47083008 -8.44515625 15.47083008 -9.25 16.54296875 C-9.72953125 17.18258545 -10.2090625 17.82220215 -10.703125 18.48120117 C-12 20 -12 20 -14 21 C-12.50548809 16.46551499 -9.94362819 13.05874042 -7 9.375 C-3.37506013 4.78052804 -3.37506013 4.78052804 0 0 Z " fill="#313C3F" transform="translate(287,253)"/>
<path d="M0 0 C0.33 0 0.66 0 1 0 C1.6948464 7.81702201 -0.70192016 15.6182986 -5.75 21.6875 C-6.4925 22.450625 -7.235 23.21375 -8 24 C-8.66 23.67 -9.32 23.34 -10 23 C-9.41992188 22.26910156 -9.41992188 22.26910156 -8.828125 21.5234375 C-3.92939261 14.85437112 -1.93048649 7.98312941 0 0 Z " fill="#2C383A" transform="translate(714,549)"/>
<path d="M0 0 C0.99 0.495 0.99 0.495 2 1 C4.01701292 7.86033408 4.27714317 14.90205554 4 22 C2.15505678 18.75972157 1.46340406 15.79552055 0.875 12.125 C0.70742188 11.11695313 0.53984375 10.10890625 0.3671875 9.0703125 C0.00172005 6.01438252 -0.06424163 3.07442109 0 0 Z " fill="#2F3B3E" transform="translate(798,407)"/>
<path d="M0 0 C-2.61743802 5.89571435 -7.71743343 10.40785473 -13 14 C-13.66 13.67 -14.32 13.34 -15 13 C-12.88094537 10.82722286 -10.75527122 8.66173092 -8.625 6.5 C-8.02171875 5.87996094 -7.4184375 5.25992188 -6.796875 4.62109375 C-6.21679688 4.03457031 -5.63671875 3.44804688 -5.0390625 2.84375 C-4.50490723 2.29912109 -3.97075195 1.75449219 -3.42041016 1.19335938 C-2 0 -2 0 0 0 Z " fill="#333E40" transform="translate(718,744)"/>
<path d="M0 0 C0.33 0 0.66 0 1 0 C1.1799928 5.21979128 0.97094808 9.07262981 -1 14 C-2.98 14 -4.96 14 -7 14 C-6.34 12.68 -5.68 11.36 -5 10 C-4.34 10 -3.68 10 -3 10 C-2.86722656 9.36191406 -2.73445313 8.72382813 -2.59765625 8.06640625 C-2.42105469 7.24011719 -2.24445313 6.41382813 -2.0625 5.5625 C-1.88847656 4.73878906 -1.71445312 3.91507812 -1.53515625 3.06640625 C-1 1 -1 1 0 0 Z " fill="#374448" transform="translate(327,462)"/>
<path d="M0 0 C0.33 0 0.66 0 1 0 C1.33851178 2.68693722 1.670936 5.37440289 2 8.0625 C2.09539062 8.81466797 2.19078125 9.56683594 2.2890625 10.34179688 C2.84571902 14.93421317 3.09829028 19.3742135 3 24 C0.23522547 21.23522547 0.47541559 18.8033247 0 15 C-0.33 14.34 -0.66 13.68 -1 13 C-0.91188555 10.78861145 -0.7570216 8.57957815 -0.5625 6.375 C-0.46066406 5.18648437 -0.35882813 3.99796875 -0.25390625 2.7734375 C-0.17011719 1.85820313 -0.08632812 0.94296875 0 0 Z " fill="#2A3537" transform="translate(213,543)"/>
<path d="M0 0 C5.94 0 11.88 0 18 0 C18.33 0.66 18.66 1.32 19 2 C14.39612021 3.00053923 10.75549487 2.86574911 6.125 2.0625 C4.97257812 1.86785156 3.82015625 1.67320312 2.6328125 1.47265625 C1.32957031 1.23869141 1.32957031 1.23869141 0 1 C0 0.67 0 0.34 0 0 Z " fill="#384A4E" transform="translate(499,352)"/>
<path d="M0 0 C0.99 0.33 1.98 0.66 3 1 C3 8.92 3 16.84 3 25 C2.34 25 1.68 25 1 25 C1 17.41 1 9.82 1 2 C0.01 1.67 -0.98 1.34 -2 1 C-1.34 0.67 -0.68 0.34 0 0 Z " fill="#1F2E2E" transform="translate(520,350)"/>
<path d="M0 0 C6.88831341 -0.62621031 12.58902255 1.64193933 19 4 C19 4.33 19 4.66 19 5 C12.31006781 4.46048934 6.36539272 3.11293829 0 1 C0 0.67 0 0.34 0 0 Z " fill="#323D40" transform="translate(401,807)"/>
<path d="M0 0 C4.13621084 3.3810038 7.81316569 6.66590534 11 11 C8 11 8 11 6.2109375 9.609375 C5.30214844 8.68898438 5.30214844 8.68898438 4.375 7.75 C3.76398438 7.14671875 3.15296875 6.5434375 2.5234375 5.921875 C0.9257803 3.90636899 0.41127602 2.51211839 0 0 Z " fill="#374347" transform="translate(351,653)"/>
<path d="M0 0 C4.54075781 4.14010271 7.71842138 8.82390176 11 14 C10.01 14 9.02 14 8 14 C6.2109375 11.953125 6.2109375 11.953125 4.375 9.25 C3.76398437 8.36828125 3.15296875 7.4865625 2.5234375 6.578125 C1.17359739 4.29378021 0.44744063 2.58789988 0 0 Z " fill="#323C3F" transform="translate(674,304)"/>
<path d="M0 0 C3.59634744 3.49359465 6.83451967 7.11098131 10 11 C9.67 11.66 9.34 12.32 9 13 C7.67532989 11.78395887 6.36567595 10.55154778 5.0625 9.3125 C4.33160156 8.62800781 3.60070312 7.94351563 2.84765625 7.23828125 C0.80570157 4.76462368 0.34750001 3.14956359 0 0 Z " fill="#354145" transform="translate(344,684)"/>
<path d="M0 0 C0.66 0.33 1.32 0.66 2 1 C1.46890625 1.51949219 0.9378125 2.03898438 0.390625 2.57421875 C-3.31050353 6.22807009 -6.87158441 9.82877921 -10 14 C-9.58181281 9.12114941 -7.55070071 7.22040297 -4 4 C-3.236875 3.236875 -2.47375 2.47375 -1.6875 1.6875 C-1.130625 1.130625 -0.57375 0.57375 0 0 Z " fill="#2C3839" transform="translate(398,707)"/>
<path d="M0 0 C1.65 0 3.3 0 5 0 C4.34 0.66 3.68 1.32 3 2 C2.54337847 4.19291082 2.179588 6.40585889 1.875 8.625 C1.70742188 9.81351563 1.53984375 11.00203125 1.3671875 12.2265625 C1.24601563 13.14179687 1.12484375 14.05703125 1 15 C-1.14699969 11.55824478 -1.09856795 9.2279708 -0.625 5.25 C-0.51414062 4.26515625 -0.40328125 3.2803125 -0.2890625 2.265625 C-0.19367187 1.51796875 -0.09828125 0.7703125 0 0 Z " fill="#333F43" transform="translate(688,578)"/>
<path d="M0 0 C3.34708051 1.54841575 6.24667512 3.49105864 9.25 5.625 C10.14203125 6.25664063 11.0340625 6.88828125 11.953125 7.5390625 C12.96632813 8.26222656 12.96632813 8.26222656 14 9 C13.01 9.33 12.02 9.66 11 10 C8.80859375 8.671875 8.80859375 8.671875 6.4375 6.75 C5.65246094 6.12609375 4.86742187 5.5021875 4.05859375 4.859375 C2 3 2 3 0 0 Z " fill="#2C3739" transform="translate(361,664)"/>
<path d="M0 0 C1.32 0.33 2.64 0.66 4 1 C1.69 3.31 -0.62 5.62 -3 8 C-3.33 6.68 -3.66 5.36 -4 4 C-2.3125 1.6875 -2.3125 1.6875 0 0 Z " fill="#DC84A5" transform="translate(482,286)"/>
<path d="M0 0 C5.35152885 0.32433508 8.28280043 3.49704824 12 7 C11.01 7.33 10.02 7.66 9 8 C6.73828125 6.6015625 6.73828125 6.6015625 4.3125 4.625 C3.50425781 3.97789062 2.69601562 3.33078125 1.86328125 2.6640625 C1.24839844 2.11492188 0.63351562 1.56578125 0 1 C0 0.67 0 0.34 0 0 Z " fill="#364345" transform="translate(318,762)"/>
<path d="M0 0 C-1.5830577 4.2742558 -4.50568404 6.26531794 -8 9 C-8 6 -8 6 -6.7578125 4.39453125 C-5.94957031 3.61142578 -5.94957031 3.61142578 -5.125 2.8125 C-4.59132813 2.28269531 -4.05765625 1.75289062 -3.5078125 1.20703125 C-2 0 -2 0 0 0 Z " fill="#394649" transform="translate(666,696)"/>
<path d="M0 0 C2.96052484 3.36423277 3.92289822 6.69159287 5 11 C4.34 11 3.68 11 3 11 C1.68 7.7 0.36 4.4 -1 1 C-0.67 0.67 -0.34 0.34 0 0 Z " fill="#364245" transform="translate(305,620)"/>
<path d="M0 0 C-3.75 3 -3.75 3 -6 3 C-6 2.34 -6 1.68 -6 1 C-7.65 1.33 -9.3 1.66 -11 2 C-11 1.34 -11 0.68 -11 0 C-3.375 -1.125 -3.375 -1.125 0 0 Z " fill="#445256" transform="translate(595,691)"/>
<path d="M0 0 C-1.38009621 3.33523252 -2.84950652 5.18607951 -6 7 C-6.99 6.67 -7.98 6.34 -9 6 C-7.8803014 4.99406757 -6.7540588 3.9954151 -5.625 3 C-4.68527344 2.1646875 -4.68527344 2.1646875 -3.7265625 1.3125 C-2 0 -2 0 0 0 Z " fill="#364145" transform="translate(361,407)"/>
<path d="M0 0 C2.31 0.66 4.62 1.32 7 2 C3.25 5 3.25 5 1 5 C0.67 5.66 0.34 6.32 0 7 C0 4.69 0 2.38 0 0 Z " fill="#294040" transform="translate(491,349)"/>
<path d="M0 0 C0 4.31618166 -2.13270348 5.92789659 -5 9 C-5.66 9 -6.32 9 -7 9 C-5.44499019 5.18315774 -2.96404505 2.80804268 0 0 Z " fill="#2A3536" transform="translate(726,734)"/>
<path d="M0 0 C0.66 0.33 1.32 0.66 2 1 C-1.96 4.465 -1.96 4.465 -6 8 C-6 5 -6 5 -4.6875 3.61328125 C-3.125 2.40885417 -1.5625 1.20442708 0 0 Z " fill="#2C383A" transform="translate(656,704)"/>
<path d="M0 0 C4.24822374 0.47202486 6.19989709 2.96655518 9 6 C4.58763974 6 3.21615077 3.9302707 0 1 C0 0.67 0 0.34 0 0 Z " fill="#384345" transform="translate(640,271)"/>
<path d="M0 0 C4.41889613 1.35021826 6.34345343 3.26115668 9 7 C4.58110387 5.64978174 2.65654657 3.73884332 0 0 Z " fill="#2B373A" transform="translate(691,216)"/>
<path d="M0 0 C0.99 0 1.98 0 3 0 C2.67 0.66 2.34 1.32 2 2 C1.34 1.34 0.68 0.68 0 0 Z " fill="#59666B" transform="translate(445,820)"/>
<path d="M0 0 C0.99 0.33 1.98 0.66 3 1 C2.01 1.33 1.02 1.66 0 2 C0 1.34 0 0.68 0 0 Z " fill="#58676C" transform="translate(240,664)"/>
<path d="M0 0 C1 4 1 4 1 4 Z " fill="#5D6B6F" transform="translate(208,516)"/>
<path d="M0 0 C1 4 1 4 1 4 Z " fill="#5D6B71" transform="translate(728,445)"/>
<path d="M0 0 C1 4 1 4 1 4 Z " fill="#DD93B1" transform="translate(468,323)"/>
<path d="M0 0 C4 1 4 1 4 1 Z " fill="#6A7277" transform="translate(491,228)"/>
<path d="M0 0 C0.33 0.66 0.66 1.32 1 2 C0.34 1.67 -0.32 1.34 -1 1 C-0.67 0.67 -0.34 0.34 0 0 Z " fill="#5A686C" transform="translate(724,740)"/>
<path d="M0 0 C0.66 0 1.32 0 2 0 C1.67 0.66 1.34 1.32 1 2 C0.67 1.34 0.34 0.68 0 0 Z " fill="#5A676C" transform="translate(226,627)"/>
<path d="" fill="#5F6D71" transform="translate(0,0)"/>
<path d="" fill="#59666C" transform="translate(0,0)"/>
<path d="" fill="#5A686D" transform="translate(0,0)"/>
<path d="" fill="#5F6B71" transform="translate(0,0)"/>
<path d="" fill="#5D6C70" transform="translate(0,0)"/>
<path d="" fill="#5B696E" transform="translate(0,0)"/>
<path d="M0 0 C0.99 0.495 0.99 0.495 2 1 C1.01 1.495 1.01 1.495 0 2 C0 1.34 0 0.68 0 0 Z " fill="#59696D" transform="translate(804,425)"/>
<path d="M0 0 C0.66 0 1.32 0 2 0 C1.67 0.66 1.34 1.32 1 2 C0.67 1.34 0.34 0.68 0 0 Z " fill="#5D6D72" transform="translate(670,423)"/>
<path d="M0 0 C0.66 0 1.32 0 2 0 C1.67 0.66 1.34 1.32 1 2 C0.67 1.34 0.34 0.68 0 0 Z " fill="#606E75" transform="translate(661,413)"/>
<path d="M0 0 C0.66 0 1.32 0 2 0 C1.67 0.66 1.34 1.32 1 2 C0.67 1.34 0.34 0.68 0 0 Z " fill="#5C696F" transform="translate(353,408)"/>
<path d="M0 0 C0.33 0.66 0.66 1.32 1 2 C0.34 1.67 -0.32 1.34 -1 1 C-0.67 0.67 -0.34 0.34 0 0 Z " fill="#5F6D72" transform="translate(362,400)"/>
<path d="" fill="#5A696E" transform="translate(0,0)"/>
<path d="M0 0 C3 1 3 1 3 1 Z " fill="#CA8FA8" transform="translate(473,341)"/>
<path d="" fill="#5B686E" transform="translate(0,0)"/>
<path d="M0 0 C0.66 0.66 1.32 1.32 2 2 C1.34 2 0.68 2 0 2 C0 1.34 0 0.68 0 0 Z " fill="#5E6A70" transform="translate(691,334)"/>
<path d="" fill="#DE94B1" transform="translate(0,0)"/>
<path d="M0 0 C3 1 3 1 3 1 Z " fill="#697378" transform="translate(520,228)"/>
<path d="M0 0 C3 1 3 1 3 1 Z " fill="#5D6A70" transform="translate(407,168)"/>
<path d="M0 0 C2 1 2 1 2 1 Z " fill="#576468" transform="translate(692,884)"/>
<path d="M0 0 C2 1 2 1 2 1 Z " fill="#5D6B6D" transform="translate(467,823)"/>
<path d="M0 0 C2 1 2 1 2 1 Z " fill="#5B686D" transform="translate(564,822)"/>
<path d="M0 0 C2 1 2 1 2 1 Z " fill="#59676C" transform="translate(601,813)"/>
<path d="M0 0 C2 1 2 1 2 1 Z " fill="#58656D" transform="translate(354,789)"/>
<path d="" fill="#59696C" transform="translate(0,0)"/>
<path d="" fill="#576469" transform="translate(0,0)"/>
<path d="M0 0 C2 1 2 1 2 1 Z " fill="#5C696F" transform="translate(603,696)"/>
<path d="" fill="#586669" transform="translate(0,0)"/>
<path d="" fill="#5E6B72" transform="translate(0,0)"/>
<path d="M0 0 C2 1 2 1 2 1 Z " fill="#5B6B72" transform="translate(681,672)"/>
<path d="" fill="#5E6A71" transform="translate(0,0)"/>
<path d="" fill="#5A676D" transform="translate(0,0)"/>
<path d="M0 0 C2 1 2 1 2 1 Z " fill="#5A686C" transform="translate(224,624)"/>
<path d="" fill="#5C696C" transform="translate(0,0)"/>
<path d="" fill="#5B696C" transform="translate(0,0)"/>
<path d="" fill="#5B6A6E" transform="translate(0,0)"/>
<path d="M0 0 C2 1 2 1 2 1 Z " fill="#5A676D" transform="translate(220,605)"/>
<path d="" fill="#5A696E" transform="translate(0,0)"/>
<path d="" fill="#59676B" transform="translate(0,0)"/>
<path d="" fill="#58676B" transform="translate(0,0)"/>
<path d="" fill="#5B6B6F" transform="translate(0,0)"/>
<path d="" fill="#5E6B72" transform="translate(0,0)"/>
<path d="" fill="#5B696D" transform="translate(0,0)"/>
<path d="" fill="#5A676B" transform="translate(0,0)"/>
<path d="" fill="#5D6970" transform="translate(0,0)"/>
<path d="" fill="#5E6B71" transform="translate(0,0)"/>
<path d="M0 0 C2 1 2 1 2 1 Z " fill="#5A686C" transform="translate(730,520)"/>
<path d="" fill="#5E6B6F" transform="translate(0,0)"/>
<path d="" fill="#58676C" transform="translate(0,0)"/>
<path d="" fill="#58666C" transform="translate(0,0)"/>
<path d="M0 0 C2 1 2 1 2 1 Z " fill="#5B6A71" transform="translate(690,472)"/>
<path d="" fill="#5B686D" transform="translate(0,0)"/>
<path d="" fill="#5D6C72" transform="translate(0,0)"/>
<path d="" fill="#5C6A6D" transform="translate(0,0)"/>
<path d="" fill="#5C6A6C" transform="translate(0,0)"/>
<path d="" fill="#5D6B6F" transform="translate(0,0)"/>
<path d="" fill="#5E6B71" transform="translate(0,0)"/>
<path d="" fill="#5C6C70" transform="translate(0,0)"/>
<path d="" fill="#5E6D71" transform="translate(0,0)"/>
<path d="M0 0 C2 1 2 1 2 1 Z " fill="#5A676C" transform="translate(798,395)"/>
<path d="" fill="#5C686D" transform="translate(0,0)"/>
<path d="" fill="#5B686E" transform="translate(0,0)"/>
<path d="" fill="#5C696E" transform="translate(0,0)"/>
<path d="" fill="#5D6A6E" transform="translate(0,0)"/>
<path d="M0 0 C2 1 2 1 2 1 Z " fill="#5A686E" transform="translate(704,367)"/>
<path d="" fill="#5C676F" transform="translate(0,0)"/>
<path d="" fill="#7B7A82" transform="translate(0,0)"/>
<path d="" fill="#7D7880" transform="translate(0,0)"/>
<path d="" fill="#5E696E" transform="translate(0,0)"/>
<path d="M0 0 C2 1 2 1 2 1 Z " fill="#CA8AA6" transform="translate(535,343)"/>
<path d="" fill="#5B686D" transform="translate(0,0)"/>
<path d="" fill="#5A686E" transform="translate(0,0)"/>
<path d="" fill="#DA93B1" transform="translate(0,0)"/>
<path d="" fill="#5B676C" transform="translate(0,0)"/>
<path d="" fill="#E095B2" transform="translate(0,0)"/>
<path d="" fill="#5C6A70" transform="translate(0,0)"/>
<path d="" fill="#5B676E" transform="translate(0,0)"/>
<path d="" fill="#626C71" transform="translate(0,0)"/>
<path d="M0 0 C2 1 2 1 2 1 Z " fill="#DC96B1" transform="translate(488,280)"/>
<path d="" fill="#616E72" transform="translate(0,0)"/>
<path d="M0 0 C2 1 2 1 2 1 Z " fill="#D191AB" transform="translate(505,275)"/>
<path d="" fill="#57656A" transform="translate(0,0)"/>
<path d="" fill="#637176" transform="translate(0,0)"/>
<path d="M0 0 C2 1 2 1 2 1 Z " fill="#616D73" transform="translate(611,253)"/>
<path d="" fill="#58656C" transform="translate(0,0)"/>
<path d="M0 0 C2 1 2 1 2 1 Z " fill="#687176" transform="translate(449,235)"/>
<path d="" fill="#576569" transform="translate(0,0)"/>
<path d="M0 0 C2 1 2 1 2 1 Z " fill="#5C6B71" transform="translate(433,160)"/>
<path d="M0 0 C2 1 2 1 2 1 Z " fill="#5C6A6E" transform="translate(465,155)"/>
<path d="" fill="#59636A" transform="translate(0,0)"/>
<path d="" fill="#566469" transform="translate(0,0)"/>
<path d="" fill="#576368" transform="translate(0,0)"/>
<path d="" fill="#58656B" transform="translate(0,0)"/>
<path d="" fill="#57666B" transform="translate(0,0)"/>
<path d="" fill="#546568" transform="translate(0,0)"/>
<path d="" fill="#5C6B70" transform="translate(0,0)"/>
<path d="" fill="#556268" transform="translate(0,0)"/>
<path d="" fill="#546367" transform="translate(0,0)"/>
<path d="" fill="#56656B" transform="translate(0,0)"/>
<path d="" fill="#556469" transform="translate(0,0)"/>
<path d="" fill="#56656A" transform="translate(0,0)"/>
<path d="" fill="#566467" transform="translate(0,0)"/>
<path d="" fill="#566469" transform="translate(0,0)"/>
<path d="" fill="#556367" transform="translate(0,0)"/>
<path d="" fill="#576369" transform="translate(0,0)"/>
<path d="" fill="#546367" transform="translate(0,0)"/>
<path d="" fill="#5B666C" transform="translate(0,0)"/>
<path d="" fill="#566569" transform="translate(0,0)"/>
<path d="" fill="#566468" transform="translate(0,0)"/>
<path d="" fill="#586369" transform="translate(0,0)"/>
<path d="" fill="#576369" transform="translate(0,0)"/>
<path d="" fill="#5B6568" transform="translate(0,0)"/>
<path d="" fill="#5D6A71" transform="translate(0,0)"/>
<path d="" fill="#5A686D" transform="translate(0,0)"/>
<path d="" fill="#5B696E" transform="translate(0,0)"/>
<path d="" fill="#5A666C" transform="translate(0,0)"/>
<path d="" fill="#58686A" transform="translate(0,0)"/>
<path d="" fill="#5A686A" transform="translate(0,0)"/>
<path d="" fill="#5A656D" transform="translate(0,0)"/>
<path d="" fill="#56646A" transform="translate(0,0)"/>
<path d="" fill="#57696A" transform="translate(0,0)"/>
<path d="" fill="#596569" transform="translate(0,0)"/>
<path d="" fill="#596669" transform="translate(0,0)"/>
<path d="" fill="#5A696E" transform="translate(0,0)"/>
<path d="" fill="#58646B" transform="translate(0,0)"/>
<path d="" fill="#58636A" transform="translate(0,0)"/>
<path d="" fill="#57646B" transform="translate(0,0)"/>
<path d="" fill="#57656C" transform="translate(0,0)"/>
<path d="" fill="#556668" transform="translate(0,0)"/>
<path d="" fill="#58666B" transform="translate(0,0)"/>
<path d="" fill="#57626A" transform="translate(0,0)"/>
<path d="" fill="#56646A" transform="translate(0,0)"/>
<path d="" fill="#5A6A6D" transform="translate(0,0)"/>
<path d="" fill="#576768" transform="translate(0,0)"/>
<path d="" fill="#57656E" transform="translate(0,0)"/>
<path d="" fill="#58636B" transform="translate(0,0)"/>
<path d="" fill="#5B696B" transform="translate(0,0)"/>
<path d="" fill="#56666A" transform="translate(0,0)"/>
<path d="" fill="#55646A" transform="translate(0,0)"/>
<path d="" fill="#556468" transform="translate(0,0)"/>
<path d="" fill="#58646A" transform="translate(0,0)"/>
<path d="" fill="#576568" transform="translate(0,0)"/>
<path d="" fill="#536367" transform="translate(0,0)"/>
<path d="" fill="#616F73" transform="translate(0,0)"/>
<path d="" fill="#57696B" transform="translate(0,0)"/>
<path d="" fill="#556568" transform="translate(0,0)"/>
<path d="" fill="#59666C" transform="translate(0,0)"/>
<path d="" fill="#5A6568" transform="translate(0,0)"/>
<path d="" fill="#586569" transform="translate(0,0)"/>
<path d="" fill="#59696E" transform="translate(0,0)"/>
<path d="" fill="#566366" transform="translate(0,0)"/>
<path d="" fill="#59686A" transform="translate(0,0)"/>
<path d="" fill="#58686D" transform="translate(0,0)"/>
<path d="" fill="#576266" transform="translate(0,0)"/>
<path d="" fill="#5A656A" transform="translate(0,0)"/>
<path d="" fill="#59676A" transform="translate(0,0)"/>
<path d="" fill="#5A6A6E" transform="translate(0,0)"/>
<path d="" fill="#5E696E" transform="translate(0,0)"/>
<path d="" fill="#59656A" transform="translate(0,0)"/>
<path d="" fill="#57656A" transform="translate(0,0)"/>
<path d="" fill="#5B6A6E" transform="translate(0,0)"/>
<path d="" fill="#5D6A6F" transform="translate(0,0)"/>
<path d="" fill="#5C6C6F" transform="translate(0,0)"/>
<path d="" fill="#5A6A6E" transform="translate(0,0)"/>
<path d="" fill="#5D6E6F" transform="translate(0,0)"/>
<path d="" fill="#5C6E72" transform="translate(0,0)"/>
<path d="" fill="#58656A" transform="translate(0,0)"/>
<path d="" fill="#58676E" transform="translate(0,0)"/>
<path d="" fill="#5C686B" transform="translate(0,0)"/>
<path d="" fill="#576569" transform="translate(0,0)"/>
<path d="" fill="#5C6A6D" transform="translate(0,0)"/>
<path d="" fill="#5C696F" transform="translate(0,0)"/>
<path d="" fill="#5B696D" transform="translate(0,0)"/>
<path d="" fill="#5A6A6E" transform="translate(0,0)"/>
<path d="" fill="#57676B" transform="translate(0,0)"/>
<path d="" fill="#566468" transform="translate(0,0)"/>
<path d="" fill="#59676A" transform="translate(0,0)"/>
<path d="" fill="#5B686E" transform="translate(0,0)"/>
<path d="" fill="#5A6B6E" transform="translate(0,0)"/>
<path d="" fill="#5B6970" transform="translate(0,0)"/>
<path d="" fill="#5B696F" transform="translate(0,0)"/>
<path d="" fill="#5A686B" transform="translate(0,0)"/>
<path d="" fill="#5C696D" transform="translate(0,0)"/>
<path d="" fill="#5D6C6F" transform="translate(0,0)"/>
<path d="" fill="#5D6B70" transform="translate(0,0)"/>
<path d="" fill="#5B6669" transform="translate(0,0)"/>
<path d="" fill="#5B6A6E" transform="translate(0,0)"/>
<path d="" fill="#5B696F" transform="translate(0,0)"/>
<path d="" fill="#5C6771" transform="translate(0,0)"/>
<path d="" fill="#5A686D" transform="translate(0,0)"/>
<path d="" fill="#5D6A6E" transform="translate(0,0)"/>
<path d="" fill="#58666A" transform="translate(0,0)"/>
<path d="" fill="#58686A" transform="translate(0,0)"/>
<path d="" fill="#59646B" transform="translate(0,0)"/>
<path d="" fill="#5D6C70" transform="translate(0,0)"/>
<path d="" fill="#5D6D71" transform="translate(0,0)"/>
<path d="" fill="#5A686E" transform="translate(0,0)"/>
<path d="" fill="#5E6E71" transform="translate(0,0)"/>
<path d="" fill="#5C6A6C" transform="translate(0,0)"/>
<path d="" fill="#5B6970" transform="translate(0,0)"/>
<path d="" fill="#5F6F73" transform="translate(0,0)"/>
<path d="" fill="#5B686E" transform="translate(0,0)"/>
<path d="" fill="#5B696E" transform="translate(0,0)"/>
<path d="" fill="#59666C" transform="translate(0,0)"/>
<path d="" fill="#59656C" transform="translate(0,0)"/>
<path d="" fill="#5B696D" transform="translate(0,0)"/>
<path d="" fill="#56666A" transform="translate(0,0)"/>
<path d="" fill="#5C6A72" transform="translate(0,0)"/>
<path d="" fill="#59696F" transform="translate(0,0)"/>
<path d="" fill="#5F6A6F" transform="translate(0,0)"/>
<path d="" fill="#5D6D71" transform="translate(0,0)"/>
<path d="" fill="#58686C" transform="translate(0,0)"/>
<path d="" fill="#59666B" transform="translate(0,0)"/>
<path d="" fill="#59676B" transform="translate(0,0)"/>
<path d="" fill="#5B666B" transform="translate(0,0)"/>
<path d="" fill="#5E6D6E" transform="translate(0,0)"/>
<path d="" fill="#5E6B6F" transform="translate(0,0)"/>
<path d="" fill="#5D6B6E" transform="translate(0,0)"/>
<path d="" fill="#59686E" transform="translate(0,0)"/>
<path d="" fill="#5B686D" transform="translate(0,0)"/>
<path d="" fill="#58646B" transform="translate(0,0)"/>
<path d="" fill="#5C696C" transform="translate(0,0)"/>
<path d="" fill="#5C686E" transform="translate(0,0)"/>
<path d="" fill="#59686B" transform="translate(0,0)"/>
<path d="" fill="#59676B" transform="translate(0,0)"/>
<path d="" fill="#5C696C" transform="translate(0,0)"/>
<path d="" fill="#5C6B70" transform="translate(0,0)"/>
<path d="" fill="#5D686E" transform="translate(0,0)"/>
<path d="" fill="#59676E" transform="translate(0,0)"/>
<path d="" fill="#58686B" transform="translate(0,0)"/>
<path d="" fill="#5A686E" transform="translate(0,0)"/>
<path d="" fill="#5E6B70" transform="translate(0,0)"/>
<path d="" fill="#5F6A6F" transform="translate(0,0)"/>
<path d="" fill="#617074" transform="translate(0,0)"/>
<path d="" fill="#5F6B6F" transform="translate(0,0)"/>
<path d="" fill="#58666A" transform="translate(0,0)"/>
<path d="" fill="#626C70" transform="translate(0,0)"/>
<path d="" fill="#5D6B72" transform="translate(0,0)"/>
<path d="" fill="#5D696E" transform="translate(0,0)"/>
<path d="" fill="#57666A" transform="translate(0,0)"/>
<path d="" fill="#5B6B72" transform="translate(0,0)"/>
<path d="" fill="#5E6A6F" transform="translate(0,0)"/>
<path d="" fill="#5A686C" transform="translate(0,0)"/>
<path d="" fill="#5D6B72" transform="translate(0,0)"/>
<path d="" fill="#5D6A71" transform="translate(0,0)"/>
<path d="" fill="#5A686D" transform="translate(0,0)"/>
<path d="" fill="#5B696E" transform="translate(0,0)"/>
<path d="" fill="#58676F" transform="translate(0,0)"/>
<path d="" fill="#59666C" transform="translate(0,0)"/>
<path d="" fill="#5F6C70" transform="translate(0,0)"/>
<path d="" fill="#5C666E" transform="translate(0,0)"/>
<path d="" fill="#5D686E" transform="translate(0,0)"/>
<path d="" fill="#5E6C73" transform="translate(0,0)"/>
<path d="" fill="#5B696F" transform="translate(0,0)"/>
<path d="" fill="#5D6B6F" transform="translate(0,0)"/>
<path d="" fill="#5D6B71" transform="translate(0,0)"/>
<path d="" fill="#5D6D71" transform="translate(0,0)"/>
<path d="" fill="#58646B" transform="translate(0,0)"/>
<path d="" fill="#5C696E" transform="translate(0,0)"/>
<path d="" fill="#5B6B6E" transform="translate(0,0)"/>
<path d="" fill="#5C6971" transform="translate(0,0)"/>
<path d="" fill="#596B70" transform="translate(0,0)"/>
<path d="" fill="#5D6870" transform="translate(0,0)"/>
<path d="" fill="#5C676D" transform="translate(0,0)"/>
<path d="" fill="#59686B" transform="translate(0,0)"/>
<path d="" fill="#58676C" transform="translate(0,0)"/>
<path d="" fill="#5C6B70" transform="translate(0,0)"/>
<path d="" fill="#5A6B6E" transform="translate(0,0)"/>
<path d="" fill="#59686D" transform="translate(0,0)"/>
<path d="" fill="#5E6B71" transform="translate(0,0)"/>
<path d="" fill="#59676D" transform="translate(0,0)"/>
<path d="" fill="#5B686F" transform="translate(0,0)"/>
<path d="" fill="#5F6E73" transform="translate(0,0)"/>
<path d="" fill="#5A6A6F" transform="translate(0,0)"/>
<path d="" fill="#5B6A6E" transform="translate(0,0)"/>
<path d="" fill="#5C6B70" transform="translate(0,0)"/>
<path d="" fill="#5C6A70" transform="translate(0,0)"/>
<path d="" fill="#5F6B72" transform="translate(0,0)"/>
<path d="" fill="#5D6D72" transform="translate(0,0)"/>
<path d="" fill="#5B676D" transform="translate(0,0)"/>
<path d="" fill="#5E6B72" transform="translate(0,0)"/>
<path d="" fill="#5C6C71" transform="translate(0,0)"/>
<path d="" fill="#5B6A6F" transform="translate(0,0)"/>
<path d="" fill="#5C6C70" transform="translate(0,0)"/>
<path d="" fill="#5B6A6F" transform="translate(0,0)"/>
<path d="" fill="#58666B" transform="translate(0,0)"/>
<path d="" fill="#5C6A6F" transform="translate(0,0)"/>
<path d="" fill="#5A696D" transform="translate(0,0)"/>
<path d="" fill="#5A666C" transform="translate(0,0)"/>
<path d="" fill="#59686D" transform="translate(0,0)"/>
<path d="" fill="#5B696F" transform="translate(0,0)"/>
<path d="" fill="#57656C" transform="translate(0,0)"/>
<path d="" fill="#5D6B6F" transform="translate(0,0)"/>
<path d="" fill="#5B676D" transform="translate(0,0)"/>
<path d="" fill="#5A656B" transform="translate(0,0)"/>
<path d="" fill="#59696E" transform="translate(0,0)"/>
<path d="" fill="#5A686E" transform="translate(0,0)"/>
<path d="" fill="#5A686E" transform="translate(0,0)"/>
<path d="" fill="#5A696F" transform="translate(0,0)"/>
<path d="" fill="#5A686E" transform="translate(0,0)"/>
<path d="" fill="#5C6A6E" transform="translate(0,0)"/>
<path d="" fill="#5F6B70" transform="translate(0,0)"/>
<path d="" fill="#5B6B6E" transform="translate(0,0)"/>
<path d="" fill="#5B6871" transform="translate(0,0)"/>
<path d="" fill="#5B676C" transform="translate(0,0)"/>
<path d="" fill="#5D696E" transform="translate(0,0)"/>
<path d="" fill="#5B676D" transform="translate(0,0)"/>
<path d="" fill="#5B6A6E" transform="translate(0,0)"/>
<path d="" fill="#5B696E" transform="translate(0,0)"/>
<path d="" fill="#5B6A6F" transform="translate(0,0)"/>
<path d="" fill="#5B6B70" transform="translate(0,0)"/>
<path d="" fill="#5A666B" transform="translate(0,0)"/>
<path d="" fill="#59686D" transform="translate(0,0)"/>
<path d="" fill="#5B686E" transform="translate(0,0)"/>
<path d="" fill="#626F73" transform="translate(0,0)"/>
<path d="" fill="#5E6D71" transform="translate(0,0)"/>
<path d="" fill="#5C6B6F" transform="translate(0,0)"/>
<path d="" fill="#5B6B6F" transform="translate(0,0)"/>
<path d="" fill="#5E6E71" transform="translate(0,0)"/>
<path d="" fill="#5D6C71" transform="translate(0,0)"/>
<path d="" fill="#5A6A6F" transform="translate(0,0)"/>
<path d="" fill="#5D6B70" transform="translate(0,0)"/>
<path d="" fill="#56636A" transform="translate(0,0)"/>
<path d="" fill="#5B696E" transform="translate(0,0)"/>
<path d="" fill="#5C6B70" transform="translate(0,0)"/>
<path d="" fill="#58686E" transform="translate(0,0)"/>
<path d="" fill="#5E6E71" transform="translate(0,0)"/>
<path d="" fill="#5D6D72" transform="translate(0,0)"/>
<path d="" fill="#5C6B70" transform="translate(0,0)"/>
<path d="" fill="#5F6D70" transform="translate(0,0)"/>
<path d="" fill="#5B6B6C" transform="translate(0,0)"/>
<path d="" fill="#5A676B" transform="translate(0,0)"/>
<path d="" fill="#5F6F72" transform="translate(0,0)"/>
<path d="" fill="#5D6B71" transform="translate(0,0)"/>
<path d="" fill="#5C6B71" transform="translate(0,0)"/>
<path d="" fill="#59696D" transform="translate(0,0)"/>
<path d="" fill="#5E6A70" transform="translate(0,0)"/>
<path d="" fill="#59666B" transform="translate(0,0)"/>
<path d="" fill="#5A676B" transform="translate(0,0)"/>
<path d="" fill="#5D6A70" transform="translate(0,0)"/>
<path d="" fill="#5E6971" transform="translate(0,0)"/>
<path d="" fill="#5B686B" transform="translate(0,0)"/>
<path d="" fill="#5B6B6F" transform="translate(0,0)"/>
<path d="" fill="#59686D" transform="translate(0,0)"/>
<path d="" fill="#606E72" transform="translate(0,0)"/>
<path d="" fill="#5D6770" transform="translate(0,0)"/>
<path d="" fill="#5F6D72" transform="translate(0,0)"/>
<path d="" fill="#5E6E6F" transform="translate(0,0)"/>
<path d="" fill="#5E6C70" transform="translate(0,0)"/>
<path d="" fill="#5E6D74" transform="translate(0,0)"/>
<path d="" fill="#5D6A72" transform="translate(0,0)"/>
<path d="" fill="#59676F" transform="translate(0,0)"/>
<path d="" fill="#5F6D73" transform="translate(0,0)"/>
<path d="" fill="#616C72" transform="translate(0,0)"/>
<path d="" fill="#5C696F" transform="translate(0,0)"/>
<path d="" fill="#5D6970" transform="translate(0,0)"/>
<path d="" fill="#616C74" transform="translate(0,0)"/>
<path d="" fill="#616A70" transform="translate(0,0)"/>
<path d="" fill="#5D6A6E" transform="translate(0,0)"/>
<path d="" fill="#5D6C72" transform="translate(0,0)"/>
<path d="" fill="#607073" transform="translate(0,0)"/>
<path d="" fill="#59696D" transform="translate(0,0)"/>
<path d="" fill="#5E6B72" transform="translate(0,0)"/>
<path d="" fill="#626F74" transform="translate(0,0)"/>
<path d="" fill="#626E74" transform="translate(0,0)"/>
<path d="" fill="#637376" transform="translate(0,0)"/>
<path d="" fill="#5E6A6F" transform="translate(0,0)"/>
<path d="" fill="#677374" transform="translate(0,0)"/>
<path d="" fill="#687579" transform="translate(0,0)"/>
<path d="" fill="#6D777C" transform="translate(0,0)"/>
<path d="" fill="#69747A" transform="translate(0,0)"/>
<path d="" fill="#57686D" transform="translate(0,0)"/>
<path d="" fill="#657277" transform="translate(0,0)"/>
<path d="" fill="#6E777B" transform="translate(0,0)"/>
<path d="" fill="#5C6871" transform="translate(0,0)"/>
<path d="" fill="#5D6B6F" transform="translate(0,0)"/>
<path d="" fill="#59676A" transform="translate(0,0)"/>
<path d="" fill="#5C686E" transform="translate(0,0)"/>
<path d="" fill="#5C686D" transform="translate(0,0)"/>
<path d="" fill="#5A686F" transform="translate(0,0)"/>
<path d="" fill="#5C6A6D" transform="translate(0,0)"/>
<path d="" fill="#5C676D" transform="translate(0,0)"/>
<path d="" fill="#5B6970" transform="translate(0,0)"/>
<path d="" fill="#5A696E" transform="translate(0,0)"/>
<path d="" fill="#5D6B70" transform="translate(0,0)"/>
<path d="" fill="#997E8D" transform="translate(0,0)"/>
<path d="" fill="#5E6A71" transform="translate(0,0)"/>
<path d="" fill="#B4889C" transform="translate(0,0)"/>
<path d="" fill="#5C6A6F" transform="translate(0,0)"/>
<path d="" fill="#BE87A0" transform="translate(0,0)"/>
<path d="" fill="#5B696B" transform="translate(0,0)"/>
<path d="" fill="#BE89A0" transform="translate(0,0)"/>
<path d="" fill="#5F6A70" transform="translate(0,0)"/>
<path d="" fill="#5C696F" transform="translate(0,0)"/>
<path d="" fill="#C58BA4" transform="translate(0,0)"/>
<path d="" fill="#5A666C" transform="translate(0,0)"/>
<path d="" fill="#CB8EA8" transform="translate(0,0)"/>
<path d="" fill="#586369" transform="translate(0,0)"/>
<path d="" fill="#59686F" transform="translate(0,0)"/>
<path d="" fill="#C58BA7" transform="translate(0,0)"/>
<path d="" fill="#CB8CA8" transform="translate(0,0)"/>
<path d="" fill="#5E6A70" transform="translate(0,0)"/>
<path d="" fill="#CC90AA" transform="translate(0,0)"/>
<path d="" fill="#CF8FAB" transform="translate(0,0)"/>
<path d="" fill="#D290AA" transform="translate(0,0)"/>
<path d="" fill="#5C6A6F" transform="translate(0,0)"/>
<path d="" fill="#5B676E" transform="translate(0,0)"/>
<path d="" fill="#D291AA" transform="translate(0,0)"/>
<path d="" fill="#5E686E" transform="translate(0,0)"/>
<path d="" fill="#5D6970" transform="translate(0,0)"/>
<path d="" fill="#5F6C73" transform="translate(0,0)"/>
<path d="" fill="#DC95B2" transform="translate(0,0)"/>
<path d="" fill="#D795AF" transform="translate(0,0)"/>
<path d="" fill="#5A676D" transform="translate(0,0)"/>
<path d="" fill="#5E6B70" transform="translate(0,0)"/>
<path d="" fill="#DD93B2" transform="translate(0,0)"/>
<path d="" fill="#5F676D" transform="translate(0,0)"/>
<path d="" fill="#5C6B6E" transform="translate(0,0)"/>
<path d="" fill="#DA94B2" transform="translate(0,0)"/>
<path d="" fill="#5D6A70" transform="translate(0,0)"/>
<path d="" fill="#D893AF" transform="translate(0,0)"/>
<path d="" fill="#5D6A6F" transform="translate(0,0)"/>
<path d="" fill="#DB94B1" transform="translate(0,0)"/>
<path d="" fill="#DE96B4" transform="translate(0,0)"/>
<path d="" fill="#5B666D" transform="translate(0,0)"/>
<path d="" fill="#5C6A6F" transform="translate(0,0)"/>
<path d="" fill="#D692AF" transform="translate(0,0)"/>
<path d="" fill="#DD97B4" transform="translate(0,0)"/>
<path d="" fill="#616B74" transform="translate(0,0)"/>
<path d="" fill="#E395B3" transform="translate(0,0)"/>
<path d="" fill="#D994B3" transform="translate(0,0)"/>
<path d="" fill="#DF96B2" transform="translate(0,0)"/>
<path d="" fill="#5A676C" transform="translate(0,0)"/>
<path d="" fill="#5D6B6F" transform="translate(0,0)"/>
<path d="" fill="#5C6A6D" transform="translate(0,0)"/>
<path d="" fill="#606A6D" transform="translate(0,0)"/>
<path d="" fill="#5E6B71" transform="translate(0,0)"/>
<path d="" fill="#DB93AF" transform="translate(0,0)"/>
<path d="" fill="#DE97B3" transform="translate(0,0)"/>
<path d="" fill="#5B686F" transform="translate(0,0)"/>
<path d="" fill="#DC90AF" transform="translate(0,0)"/>
<path d="" fill="#5D6970" transform="translate(0,0)"/>
<path d="" fill="#5D6D6F" transform="translate(0,0)"/>
<path d="" fill="#5C696E" transform="translate(0,0)"/>
<path d="" fill="#D992AE" transform="translate(0,0)"/>
<path d="" fill="#58676E" transform="translate(0,0)"/>
<path d="" fill="#59676E" transform="translate(0,0)"/>
<path d="" fill="#5C6A6F" transform="translate(0,0)"/>
<path d="" fill="#D593AB" transform="translate(0,0)"/>
<path d="" fill="#DA92B0" transform="translate(0,0)"/>
<path d="" fill="#5E6C6F" transform="translate(0,0)"/>
<path d="" fill="#DB97B1" transform="translate(0,0)"/>
<path d="" fill="#D590AE" transform="translate(0,0)"/>
<path d="" fill="#606F73" transform="translate(0,0)"/>
<path d="" fill="#DA94B1" transform="translate(0,0)"/>
<path d="" fill="#D294B0" transform="translate(0,0)"/>
<path d="" fill="#5B686D" transform="translate(0,0)"/>
<path d="" fill="#CE91AA" transform="translate(0,0)"/>
<path d="" fill="#DF97B1" transform="translate(0,0)"/>
<path d="" fill="#5C696E" transform="translate(0,0)"/>
<path d="" fill="#606A70" transform="translate(0,0)"/>
<path d="" fill="#D395AD" transform="translate(0,0)"/>
<path d="" fill="#5F6B70" transform="translate(0,0)"/>
<path d="" fill="#5E6D6F" transform="translate(0,0)"/>
<path d="" fill="#D192AC" transform="translate(0,0)"/>
<path d="" fill="#58666D" transform="translate(0,0)"/>
<path d="" fill="#5C686C" transform="translate(0,0)"/>
<path d="" fill="#58626A" transform="translate(0,0)"/>
<path d="" fill="#5E6C71" transform="translate(0,0)"/>
<path d="" fill="#606D72" transform="translate(0,0)"/>
<path d="" fill="#616B6F" transform="translate(0,0)"/>
<path d="" fill="#58666C" transform="translate(0,0)"/>
<path d="" fill="#5B686D" transform="translate(0,0)"/>
<path d="" fill="#57676A" transform="translate(0,0)"/>
<path d="" fill="#636F74" transform="translate(0,0)"/>
<path d="" fill="#5C6A6E" transform="translate(0,0)"/>
<path d="" fill="#626A70" transform="translate(0,0)"/>
<path d="" fill="#626F74" transform="translate(0,0)"/>
<path d="" fill="#636E76" transform="translate(0,0)"/>
<path d="" fill="#667076" transform="translate(0,0)"/>
<path d="" fill="#5B6870" transform="translate(0,0)"/>
<path d="" fill="#637277" transform="translate(0,0)"/>
<path d="" fill="#637077" transform="translate(0,0)"/>
<path d="" fill="#656F76" transform="translate(0,0)"/>
<path d="" fill="#656F77" transform="translate(0,0)"/>
<path d="" fill="#647075" transform="translate(0,0)"/>
<path d="" fill="#647075" transform="translate(0,0)"/>
<path d="" fill="#667074" transform="translate(0,0)"/>
<path d="" fill="#657176" transform="translate(0,0)"/>
<path d="" fill="#667175" transform="translate(0,0)"/>
<path d="" fill="#667072" transform="translate(0,0)"/>
<path d="" fill="#556568" transform="translate(0,0)"/>
<path d="" fill="#566167" transform="translate(0,0)"/>
<path d="" fill="#58666B" transform="translate(0,0)"/>
<path d="" fill="#687075" transform="translate(0,0)"/>
<path d="" fill="#667177" transform="translate(0,0)"/>
<path d="" fill="#697478" transform="translate(0,0)"/>
<path d="" fill="#6C7479" transform="translate(0,0)"/>
<path d="" fill="#657177" transform="translate(0,0)"/>
<path d="" fill="#5B676C" transform="translate(0,0)"/>
<path d="" fill="#656E74" transform="translate(0,0)"/>
<path d="" fill="#697376" transform="translate(0,0)"/>
<path d="" fill="#657075" transform="translate(0,0)"/>
<path d="" fill="#6B7279" transform="translate(0,0)"/>
<path d="" fill="#676F76" transform="translate(0,0)"/>
<path d="" fill="#59686B" transform="translate(0,0)"/>
<path d="" fill="#5A666A" transform="translate(0,0)"/>
<path d="" fill="#677276" transform="translate(0,0)"/>
<path d="" fill="#5B6670" transform="translate(0,0)"/>
<path d="" fill="#5C696C" transform="translate(0,0)"/>
<path d="" fill="#586569" transform="translate(0,0)"/>
<path d="" fill="#5D696D" transform="translate(0,0)"/>
<path d="" fill="#5C6970" transform="translate(0,0)"/>
<path d="" fill="#5C696C" transform="translate(0,0)"/>
<path d="" fill="#5E6970" transform="translate(0,0)"/>
<path d="" fill="#59686F" transform="translate(0,0)"/>
<path d="" fill="#5D6B72" transform="translate(0,0)"/>
<path d="" fill="#5C686D" transform="translate(0,0)"/>
<path d="" fill="#5C686C" transform="translate(0,0)"/>
<path d="" fill="#5B676C" transform="translate(0,0)"/>
<path d="" fill="#5A686E" transform="translate(0,0)"/>
<path d="" fill="#5B686E" transform="translate(0,0)"/>
<path d="" fill="#58696D" transform="translate(0,0)"/>
<path d="" fill="#5C686D" transform="translate(0,0)"/>
<path d="" fill="#5D676D" transform="translate(0,0)"/>
<path d="" fill="#5C6E72" transform="translate(0,0)"/>
<path d="" fill="#5F6E73" transform="translate(0,0)"/>
<path d="" fill="#5B6B72" transform="translate(0,0)"/>
<path d="" fill="#5B686C" transform="translate(0,0)"/>
<path d="" fill="#59686F" transform="translate(0,0)"/>
<path d="" fill="#5D6A6F" transform="translate(0,0)"/>
<path d="" fill="#5C6B6E" transform="translate(0,0)"/>
<path d="" fill="#5B6B6D" transform="translate(0,0)"/>
<path d="" fill="#5A686D" transform="translate(0,0)"/>
<path d="" fill="#58666A" transform="translate(0,0)"/>
<path d="" fill="#59676D" transform="translate(0,0)"/>
<path d="" fill="#5C6C70" transform="translate(0,0)"/>
<path d="" fill="#5A6B6D" transform="translate(0,0)"/>
<path d="" fill="#606D6C" transform="translate(0,0)"/>
<path d="" fill="#5B6A6C" transform="translate(0,0)"/>
<path d="" fill="#5C6C70" transform="translate(0,0)"/>
<path d="" fill="#5C686D" transform="translate(0,0)"/>
<path d="" fill="#5B676C" transform="translate(0,0)"/>
<path d="" fill="#5C6A70" transform="translate(0,0)"/>
<path d="" fill="#5C6A6E" transform="translate(0,0)"/>
<path d="" fill="#5B6D6F" transform="translate(0,0)"/>
<path d="" fill="#5B6C6F" transform="translate(0,0)"/>
<path d="" fill="#5F6E73" transform="translate(0,0)"/>
<path d="" fill="#5C696D" transform="translate(0,0)"/>
<path d="" fill="#606D71" transform="translate(0,0)"/>
<path d="" fill="#5B6A70" transform="translate(0,0)"/>
<path d="" fill="#5F6971" transform="translate(0,0)"/>
<path d="" fill="#5C696C" transform="translate(0,0)"/>
<path d="" fill="#5E6D72" transform="translate(0,0)"/>
</svg>
